<svg xmlns="http://www.w3.org/2000/svg" xmlns:xlink="http://www.w3.org/1999/xlink" width="93" zoomAndPan="magnify" viewBox="0 0 69.75 17.25" height="23" preserveAspectRatio="xMidYMid meet" version="1.0"><defs><g/><clipPath id="4f93cc6bcf"><path d="M 3.277344 1.132812 L 16.246094 1.132812 L 16.246094 14 L 3.277344 14 Z M 3.277344 1.132812 " clip-rule="nonzero"/></clipPath><clipPath id="e3ecfcd840"><path d="M 2 4 L 13 4 L 13 16 L 2 16 Z M 2 4 " clip-rule="nonzero"/></clipPath><clipPath id="84364516d2"><path d="M 1.398438 14.289062 L 2.808594 4.550781 L 13.332031 6.074219 L 11.921875 15.8125 Z M 1.398438 14.289062 " clip-rule="nonzero"/></clipPath><clipPath id="33fadbb269"><path d="M 1.398438 14.289062 L 2.808594 4.550781 L 13.332031 6.074219 L 11.921875 15.8125 Z M 1.398438 14.289062 " clip-rule="nonzero"/></clipPath><clipPath id="e3aa1dcb37"><path d="M 12.382812 0.28125 L 17.875 0.28125 L 17.875 7.039062 L 12.382812 7.039062 Z M 12.382812 0.28125 " clip-rule="nonzero"/></clipPath></defs><g clip-path="url(#4f93cc6bcf)"><path fill="#000000" d="M 13.65625 3.464844 L 13.496094 3.304688 C 13.039062 2.832031 13.042969 2.070312 13.511719 1.601562 C 13.976562 1.136719 14.738281 1.132812 15.210938 1.585938 L 15.226562 1.601562 L 15.375 1.746094 L 15.773438 2.148438 C 16.246094 2.621094 16.246094 3.390625 15.773438 3.863281 C 15.300781 4.335938 14.527344 4.335938 14.058594 3.863281 Z M 5.5625 10.101562 L 5.421875 10.246094 L 5.257812 10.40625 L 3.761719 11.902344 C 3.289062 12.375 3.289062 13.148438 3.761719 13.621094 C 4.234375 14.089844 5.007812 14.089844 5.476562 13.621094 L 8.136719 10.960938 C 8.609375 10.488281 8.609375 9.71875 8.136719 9.246094 L 7.125 8.234375 L 5.464844 6.578125 C 4.996094 6.105469 4.222656 6.105469 3.75 6.578125 C 3.277344 7.046875 3.277344 7.820312 3.75 8.292969 L 5.410156 9.953125 Z M 15.703125 13.609375 C 15.234375 14.082031 14.460938 14.082031 13.988281 13.609375 L 3.773438 3.394531 C 3.300781 2.921875 3.300781 2.148438 3.773438 1.675781 C 4.246094 1.207031 5.015625 1.207031 5.488281 1.675781 L 15.703125 11.894531 C 16.175781 12.367188 16.175781 13.136719 15.703125 13.609375 Z M 15.71875 8.71875 C 15.246094 9.191406 14.476562 9.191406 14.003906 8.71875 L 8.664062 3.378906 C 8.191406 2.90625 8.191406 2.132812 8.664062 1.664062 C 9.136719 1.191406 9.910156 1.191406 10.378906 1.664062 L 12.039062 3.320312 L 14.554688 5.839844 L 15.71875 7.003906 C 16.191406 7.472656 16.191406 8.246094 15.71875 8.71875 Z M 15.71875 8.71875 " fill-opacity="1" fill-rule="evenodd"/></g><g clip-path="url(#e3ecfcd840)"><g clip-path="url(#84364516d2)"><g clip-path="url(#33fadbb269)"><path fill="#000000" d="M 11.265625 15.175781 C 11.285156 15.136719 11.3125 15.097656 11.269531 15.054688 C 11.257812 15.035156 11.242188 15.03125 11.21875 15.039062 C 11.160156 15.058594 11.1875 15.109375 11.171875 15.144531 C 11.132812 15.238281 11.121094 15.304688 11.242188 15.335938 C 11.246094 15.339844 11.246094 15.371094 11.242188 15.390625 C 11.230469 15.386719 11.214844 15.386719 11.203125 15.378906 C 11.121094 15.320312 11.042969 15.261719 10.964844 15.382812 C 10.953125 15.402344 10.867188 15.40625 10.863281 15.394531 C 10.800781 15.230469 10.640625 15.378906 10.546875 15.296875 C 10.492188 15.246094 10.414062 15.246094 10.332031 15.289062 C 10.265625 15.328125 10.269531 15.226562 10.234375 15.199219 C 10.152344 15.128906 10.054688 15.097656 9.96875 15.039062 C 9.96875 15.03125 9.964844 15.019531 9.960938 15.011719 C 9.957031 15.019531 9.949219 15.027344 9.945312 15.035156 L 9.949219 15.035156 C 9.636719 14.90625 9.355469 14.730469 9.109375 14.5 C 8.851562 14.257812 8.589844 14.027344 8.308594 13.8125 C 8.074219 13.636719 7.832031 13.460938 7.65625 13.222656 C 7.613281 13.167969 7.550781 13.152344 7.511719 13.085938 C 7.492188 13.050781 7.421875 13.042969 7.367188 13.078125 C 7.175781 13.195312 6.984375 13.316406 6.78125 13.421875 C 6.488281 13.578125 6.1875 13.730469 5.871094 13.84375 C 5.703125 13.90625 5.625 14.046875 5.5625 14.195312 C 5.535156 14.261719 5.605469 14.277344 5.652344 14.277344 C 5.804688 14.273438 5.945312 14.308594 6.082031 14.378906 C 6.117188 14.394531 6.152344 14.414062 6.152344 14.453125 C 6.152344 14.503906 6.105469 14.511719 6.066406 14.519531 C 5.90625 14.542969 5.75 14.488281 5.589844 14.488281 C 5.367188 14.480469 5.136719 14.488281 4.910156 14.480469 C 4.769531 14.476562 4.625 14.558594 4.472656 14.578125 C 4.351562 14.597656 4.230469 14.621094 4.101562 14.605469 C 4.066406 14.605469 3.992188 14.527344 3.964844 14.632812 C 3.957031 14.660156 3.941406 14.613281 3.933594 14.605469 C 3.835938 14.476562 3.722656 14.386719 3.546875 14.398438 C 3.515625 14.402344 3.484375 14.394531 3.464844 14.433594 C 3.449219 14.46875 3.421875 14.460938 3.402344 14.429688 C 3.359375 14.347656 3.320312 14.261719 3.199219 14.269531 C 3.164062 14.269531 3.183594 14.21875 3.175781 14.195312 C 3.148438 14.0625 3.039062 14.003906 2.929688 13.960938 C 2.863281 13.9375 2.867188 13.90625 2.910156 13.882812 C 2.988281 13.84375 2.960938 13.777344 2.941406 13.738281 C 2.898438 13.628906 2.953125 13.5625 3.011719 13.488281 C 3.03125 13.464844 3.050781 13.4375 3.019531 13.417969 C 2.945312 13.371094 2.957031 13.296875 2.980469 13.246094 C 3.039062 13.117188 2.976562 12.96875 3.050781 12.839844 C 3.078125 12.792969 3.023438 12.707031 3.050781 12.625 C 3.128906 12.390625 3.292969 12.234375 3.472656 12.082031 C 3.632812 11.941406 3.792969 11.800781 3.839844 11.566406 C 3.890625 11.296875 4.128906 11.203125 4.359375 11.117188 C 4.441406 11.089844 4.515625 11.019531 4.613281 11.058594 C 4.621094 11.0625 4.644531 11.054688 4.644531 11.050781 C 4.675781 10.871094 4.871094 10.835938 4.945312 10.6875 C 4.96875 10.636719 5.054688 10.621094 5.109375 10.578125 C 5.175781 10.523438 5.238281 10.433594 5.234375 10.359375 C 5.230469 10.296875 5.335938 10.230469 5.238281 10.167969 C 5.238281 10.167969 5.242188 10.152344 5.246094 10.148438 C 5.300781 10.082031 5.300781 10.054688 5.226562 9.984375 C 5.089844 9.855469 4.949219 9.726562 4.8125 9.59375 C 4.675781 9.460938 4.554688 9.316406 4.425781 9.179688 C 4.328125 9.074219 4.214844 8.980469 4.121094 8.871094 C 4.058594 8.796875 4.09375 8.699219 4.042969 8.65625 C 4 8.621094 3.898438 8.722656 3.839844 8.644531 C 3.757812 8.539062 3.617188 8.488281 3.582031 8.339844 C 3.566406 8.277344 3.535156 8.265625 3.503906 8.332031 C 3.496094 8.347656 3.472656 8.355469 3.453125 8.367188 C 3.453125 8.347656 3.457031 8.324219 3.449219 8.308594 C 3.398438 8.21875 3.417969 8.085938 3.289062 8.046875 C 3.285156 8.039062 3.277344 8.035156 3.269531 8.03125 C 3.273438 8.039062 3.273438 8.046875 3.277344 8.054688 C 3.265625 8.089844 3.28125 8.152344 3.222656 8.148438 C 3.179688 8.140625 3.171875 8.070312 3.121094 8.054688 C 3.113281 8.050781 3.140625 8.019531 3.160156 8.019531 C 3.292969 8.015625 3.230469 7.949219 3.203125 7.890625 C 3.179688 7.839844 3.160156 7.84375 3.136719 7.886719 C 3.125 7.90625 3.121094 7.925781 3.109375 7.941406 C 3.078125 7.980469 3.035156 8.007812 2.984375 8.003906 C 2.949219 8 2.972656 7.972656 2.96875 7.953125 C 2.957031 7.894531 2.96875 7.867188 3.035156 7.851562 C 3.066406 7.84375 3.085938 7.796875 3.113281 7.769531 C 3.082031 7.753906 3.054688 7.726562 3.023438 7.722656 C 2.933594 7.714844 2.929688 7.578125 2.828125 7.59375 C 2.8125 7.59375 2.832031 7.570312 2.84375 7.570312 C 2.898438 7.554688 2.902344 7.515625 2.894531 7.476562 C 2.886719 7.429688 2.863281 7.402344 2.933594 7.367188 C 2.980469 7.339844 2.925781 7.296875 2.875 7.296875 C 2.933594 7.183594 2.832031 7.039062 2.941406 6.921875 C 2.984375 6.878906 2.847656 6.722656 2.761719 6.710938 L 2.765625 6.710938 C 2.769531 6.664062 2.804688 6.675781 2.839844 6.675781 C 2.96875 6.675781 3.027344 6.597656 2.957031 6.492188 C 2.894531 6.398438 2.976562 6.34375 2.992188 6.273438 C 3.007812 6.195312 3.113281 6.15625 3.09375 6.039062 C 3.074219 5.933594 3.167969 6.09375 3.179688 6.019531 C 3.1875 5.953125 3.078125 6 3.09375 5.933594 C 3.101562 5.898438 3.132812 5.894531 3.171875 5.90625 C 3.242188 5.933594 3.308594 5.960938 3.320312 5.832031 C 3.324219 5.757812 3.402344 5.699219 3.492188 5.683594 C 3.640625 5.65625 3.773438 5.597656 3.816406 5.429688 C 3.824219 5.394531 3.851562 5.390625 3.878906 5.382812 C 4.003906 5.363281 4.125 5.339844 4.25 5.34375 C 4.277344 5.34375 4.300781 5.355469 4.3125 5.324219 C 4.335938 5.269531 4.398438 5.175781 4.414062 5.1875 C 4.488281 5.238281 4.578125 5.132812 4.652344 5.210938 C 4.699219 5.265625 4.722656 5.210938 4.746094 5.183594 C 4.777344 5.144531 4.820312 5.152344 4.84375 5.171875 C 4.902344 5.222656 4.820312 5.210938 4.808594 5.226562 C 4.773438 5.289062 4.785156 5.300781 4.851562 5.324219 C 4.894531 5.339844 4.910156 5.402344 4.960938 5.4375 C 5.054688 5.496094 5.140625 5.5 5.234375 5.460938 C 5.253906 5.453125 5.277344 5.433594 5.28125 5.4375 C 5.300781 5.460938 5.273438 5.472656 5.265625 5.488281 C 5.253906 5.511719 5.222656 5.539062 5.246094 5.5625 C 5.273438 5.597656 5.289062 5.542969 5.316406 5.546875 C 5.363281 5.554688 5.421875 5.542969 5.449219 5.59375 C 5.480469 5.648438 5.40625 5.625 5.398438 5.652344 C 5.394531 5.6875 5.378906 5.742188 5.394531 5.753906 C 5.433594 5.78125 5.421875 5.722656 5.441406 5.710938 C 5.496094 5.679688 5.503906 5.726562 5.5 5.75 C 5.46875 5.933594 5.679688 5.882812 5.726562 5.984375 C 5.738281 5.976562 5.757812 5.96875 5.765625 5.957031 C 5.792969 5.898438 5.839844 5.910156 5.875 5.9375 C 5.910156 5.964844 5.898438 6.011719 5.871094 6.046875 C 5.855469 6.0625 5.824219 6.097656 5.839844 6.101562 C 5.949219 6.121094 5.9375 6.269531 6.046875 6.289062 C 6.050781 6.289062 6.054688 6.289062 6.058594 6.289062 C 6.191406 6.277344 6.046875 6.433594 6.121094 6.414062 C 6.21875 6.382812 6.214844 6.410156 6.25 6.492188 C 6.289062 6.574219 6.355469 6.652344 6.398438 6.742188 C 6.386719 6.742188 6.371094 6.738281 6.386719 6.757812 C 6.390625 6.753906 6.394531 6.746094 6.398438 6.742188 C 6.46875 6.703125 6.527344 6.753906 6.589844 6.769531 L 6.589844 6.765625 C 6.582031 6.792969 6.589844 6.832031 6.546875 6.828125 C 6.519531 6.828125 6.503906 6.746094 6.464844 6.804688 C 6.421875 6.867188 6.390625 6.9375 6.367188 7.007812 C 6.359375 7.03125 6.386719 7.074219 6.421875 7.035156 C 6.480469 6.972656 6.527344 7.054688 6.578125 7.046875 C 6.585938 7.085938 6.652344 7.140625 6.546875 7.15625 C 6.527344 7.160156 6.550781 7.199219 6.566406 7.203125 C 6.707031 7.253906 6.730469 7.375 6.753906 7.5 C 6.773438 7.585938 6.804688 7.660156 6.902344 7.703125 C 6.941406 7.71875 7.003906 7.742188 6.964844 7.828125 C 6.9375 7.886719 7.011719 7.921875 7.074219 7.914062 C 7.152344 7.902344 7.195312 7.921875 7.210938 8.007812 C 7.226562 8.085938 7.464844 8.128906 7.550781 8.082031 C 7.671875 8.015625 7.710938 7.871094 7.839844 7.808594 C 7.964844 7.75 8.078125 7.675781 8.195312 7.601562 C 8.234375 7.582031 8.234375 7.621094 8.25 7.625 C 8.269531 7.628906 8.304688 7.640625 8.304688 7.640625 C 8.351562 7.488281 8.535156 7.542969 8.625 7.429688 C 8.679688 7.367188 8.785156 7.308594 8.867188 7.246094 C 8.949219 7.183594 9.066406 7.238281 9.15625 7.1875 C 9.175781 7.179688 9.21875 7.195312 9.214844 7.164062 C 9.214844 7.066406 9.289062 7.042969 9.351562 6.988281 C 9.488281 6.863281 9.632812 6.773438 9.828125 6.785156 C 9.859375 6.785156 9.882812 6.761719 9.886719 6.734375 C 9.898438 6.683594 9.917969 6.6875 9.949219 6.726562 C 9.964844 6.742188 10 6.742188 10 6.726562 C 10.007812 6.519531 10.140625 6.671875 10.179688 6.683594 C 10.339844 6.730469 10.492188 6.710938 10.652344 6.699219 C 10.675781 6.695312 10.710938 6.691406 10.71875 6.714844 C 10.742188 6.796875 10.785156 6.824219 10.863281 6.777344 C 10.871094 6.769531 10.902344 6.789062 10.902344 6.789062 C 10.847656 6.980469 11.039062 6.910156 11.105469 6.972656 C 11.132812 7 11.1875 7 11.203125 7.050781 C 11.246094 7.203125 11.382812 7.261719 11.488281 7.359375 C 11.601562 7.460938 11.589844 7.609375 11.621094 7.746094 C 11.617188 7.746094 11.617188 7.746094 11.609375 7.746094 C 11.609375 7.746094 11.609375 7.75 11.609375 7.753906 C 11.613281 7.75 11.617188 7.746094 11.621094 7.742188 C 11.691406 7.820312 11.667969 7.933594 11.714844 8.027344 C 11.78125 8.167969 11.855469 8.214844 12.015625 8.230469 C 12.277344 8.257812 12.542969 8.246094 12.804688 8.269531 C 12.902344 8.277344 12.972656 8.328125 12.96875 8.425781 C 12.964844 8.539062 12.867188 8.546875 12.785156 8.535156 C 12.511719 8.503906 12.246094 8.554688 11.972656 8.558594 C 11.882812 8.5625 11.8125 8.644531 11.710938 8.628906 C 11.6875 8.625 11.675781 8.671875 11.691406 8.6875 C 11.757812 8.742188 11.777344 8.855469 11.894531 8.855469 C 11.964844 8.855469 12.03125 8.875 12.101562 8.886719 C 12.179688 8.898438 12.222656 8.949219 12.21875 9.03125 C 12.214844 9.117188 12.148438 9.140625 12.078125 9.132812 C 11.9375 9.125 11.796875 9.128906 11.65625 9.136719 C 11.558594 9.144531 11.46875 9.171875 11.414062 9.253906 C 11.386719 9.289062 11.285156 9.386719 11.457031 9.359375 C 11.46875 9.359375 11.496094 9.371094 11.496094 9.378906 C 11.492188 9.414062 11.460938 9.402344 11.4375 9.40625 C 11.371094 9.425781 11.367188 9.425781 11.378906 9.476562 C 11.382812 9.484375 11.375 9.503906 11.371094 9.503906 C 11.164062 9.515625 11.277344 9.660156 11.265625 9.753906 C 11.261719 9.773438 11.316406 9.804688 11.261719 9.816406 C 11.230469 9.824219 11.199219 9.804688 11.203125 9.757812 C 11.207031 9.734375 11.21875 9.703125 11.183594 9.699219 C 11.160156 9.695312 11.136719 9.71875 11.132812 9.742188 C 11.117188 9.882812 10.929688 9.976562 11.023438 10.144531 C 11.023438 10.152344 11.019531 10.167969 11.019531 10.167969 C 10.914062 10.179688 10.867188 10.296875 10.765625 10.304688 C 10.730469 10.308594 10.734375 10.273438 10.71875 10.257812 C 10.703125 10.238281 10.675781 10.191406 10.660156 10.230469 C 10.613281 10.324219 10.53125 10.261719 10.476562 10.292969 C 10.363281 10.355469 10.246094 10.414062 10.160156 10.511719 C 10.054688 10.625 9.957031 10.742188 9.910156 10.898438 C 9.882812 10.980469 9.78125 10.976562 9.714844 11 C 9.628906 11.027344 9.535156 11.082031 9.53125 11.144531 C 9.527344 11.265625 9.488281 11.386719 9.527344 11.507812 C 9.542969 11.542969 9.558594 11.574219 9.554688 11.609375 C 9.527344 11.765625 9.605469 11.875 9.714844 11.960938 C 9.75 11.988281 9.753906 12.035156 9.757812 12.0625 C 9.800781 12.238281 9.941406 12.324219 10.066406 12.429688 C 10.175781 12.519531 10.210938 12.660156 10.285156 12.765625 C 10.398438 12.929688 10.464844 13.132812 10.628906 13.261719 C 10.664062 13.289062 10.6875 13.320312 10.6875 13.367188 C 10.6875 13.410156 10.699219 13.449219 10.757812 13.4375 C 10.765625 13.4375 10.78125 13.4375 10.78125 13.441406 C 10.792969 13.621094 10.957031 13.578125 11.039062 13.582031 C 11.226562 13.589844 11.121094 13.65625 11.082031 13.710938 C 11.066406 13.738281 11.082031 13.746094 11.085938 13.765625 C 11.128906 13.984375 11.257812 14.171875 11.316406 14.386719 C 11.324219 14.414062 11.363281 14.4375 11.390625 14.460938 C 11.402344 14.472656 11.441406 14.488281 11.40625 14.492188 C 11.289062 14.507812 11.355469 14.582031 11.347656 14.632812 C 11.335938 14.6875 11.292969 14.746094 11.398438 14.75 C 11.445312 14.75 11.414062 14.78125 11.398438 14.792969 C 11.308594 14.847656 11.296875 14.917969 11.339844 15.019531 C 11.355469 15.082031 11.390625 15.179688 11.265625 15.175781 Z M 4.652344 5.304688 C 4.65625 5.269531 4.628906 5.273438 4.617188 5.265625 C 4.601562 5.257812 4.585938 5.25 4.578125 5.269531 C 4.570312 5.292969 4.582031 5.3125 4.601562 5.316406 C 4.617188 5.320312 4.636719 5.308594 4.652344 5.304688 Z M 5.375 14.234375 C 5.410156 14.246094 5.425781 14.257812 5.433594 14.253906 C 5.460938 14.25 5.492188 14.246094 5.507812 14.230469 C 5.519531 14.222656 5.492188 14.210938 5.480469 14.210938 C 5.453125 14.214844 5.425781 14.21875 5.375 14.234375 Z M 6.980469 7.945312 C 6.976562 7.945312 6.972656 7.949219 6.96875 7.953125 C 6.976562 7.957031 6.980469 7.960938 6.988281 7.964844 C 6.988281 7.964844 6.992188 7.960938 6.996094 7.957031 C 6.992188 7.953125 6.984375 7.949219 6.980469 7.945312 Z M 3.625 8.332031 C 3.628906 8.335938 3.628906 8.34375 3.632812 8.34375 C 3.640625 8.34375 3.644531 8.339844 3.648438 8.339844 C 3.648438 8.335938 3.648438 8.332031 3.644531 8.328125 C 3.636719 8.332031 3.632812 8.332031 3.625 8.332031 Z M 3.101562 7.859375 C 3.097656 7.859375 3.09375 7.863281 3.09375 7.863281 C 3.09375 7.867188 3.097656 7.867188 3.097656 7.875 C 3.101562 7.871094 3.105469 7.871094 3.105469 7.867188 C 3.105469 7.863281 3.101562 7.859375 3.101562 7.859375 Z M 10.296875 10.496094 C 10.261719 10.519531 10.269531 10.566406 10.277344 10.609375 C 10.28125 10.613281 10.292969 10.621094 10.300781 10.625 C 10.339844 10.558594 10.445312 10.582031 10.46875 10.503906 C 10.476562 10.476562 10.5 10.4375 10.4375 10.433594 C 10.390625 10.453125 10.339844 10.464844 10.296875 10.496094 Z M 10.5625 10.480469 C 10.574219 10.53125 10.59375 10.578125 10.613281 10.628906 C 10.636719 10.585938 10.671875 10.546875 10.683594 10.5 C 10.683594 10.480469 10.636719 10.445312 10.613281 10.425781 C 10.5625 10.421875 10.554688 10.457031 10.5625 10.480469 Z M 2.832031 6.144531 C 2.808594 6.125 2.792969 6.144531 2.789062 6.167969 C 2.789062 6.207031 2.78125 6.261719 2.828125 6.277344 C 2.851562 6.285156 2.886719 6.257812 2.929688 6.242188 C 2.890625 6.207031 2.863281 6.171875 2.832031 6.144531 Z M 3.253906 5.78125 C 3.28125 5.734375 3.296875 5.679688 3.320312 5.628906 C 3.328125 5.613281 3.332031 5.589844 3.3125 5.59375 C 3.25 5.601562 3.253906 5.667969 3.222656 5.699219 C 3.222656 5.742188 3.25 5.789062 3.253906 5.78125 Z M 11.554688 14.929688 C 11.578125 14.886719 11.640625 14.917969 11.648438 14.867188 C 11.652344 14.839844 11.621094 14.828125 11.601562 14.820312 C 11.558594 14.808594 11.550781 14.847656 11.535156 14.875 C 11.550781 14.890625 11.546875 14.9375 11.554688 14.929688 Z M 11.328125 10.074219 C 11.316406 10.054688 11.289062 10.039062 11.289062 10.074219 C 11.289062 10.113281 11.308594 10.148438 11.316406 10.1875 C 11.34375 10.152344 11.332031 10.070312 11.453125 10.128906 C 11.394531 10.066406 11.351562 10.109375 11.328125 10.074219 Z M 5.238281 5.007812 C 5.285156 5.019531 5.269531 4.980469 5.273438 4.957031 C 5.28125 4.933594 5.289062 4.90625 5.25 4.902344 C 5.210938 4.90625 5.234375 4.953125 5.214844 4.964844 C 5.195312 4.996094 5.21875 5 5.238281 5.007812 Z M 11.515625 10.113281 C 11.503906 10.136719 11.535156 10.140625 11.546875 10.136719 C 11.570312 10.128906 11.621094 10.15625 11.613281 10.101562 C 11.613281 10.082031 11.597656 10.066406 11.570312 10.019531 C 11.578125 10.089844 11.53125 10.085938 11.515625 10.113281 Z M 11.476562 15.230469 C 11.453125 15.1875 11.570312 15.171875 11.496094 15.128906 C 11.460938 15.105469 11.445312 15.140625 11.433594 15.160156 C 11.394531 15.21875 11.453125 15.214844 11.476562 15.230469 Z M 2.730469 7.507812 C 2.730469 7.515625 2.746094 7.539062 2.757812 7.539062 C 2.792969 7.535156 2.800781 7.507812 2.808594 7.484375 C 2.816406 7.464844 2.808594 7.453125 2.785156 7.449219 C 2.761719 7.464844 2.730469 7.472656 2.730469 7.507812 Z M 6.425781 6.945312 C 6.410156 6.953125 6.441406 6.972656 6.449219 6.964844 C 6.484375 6.945312 6.535156 6.980469 6.554688 6.929688 C 6.5625 6.910156 6.546875 6.902344 6.527344 6.898438 C 6.492188 6.914062 6.453125 6.921875 6.425781 6.945312 Z M 11.402344 9.570312 C 11.371094 9.5625 11.335938 9.558594 11.316406 9.59375 C 11.300781 9.617188 11.3125 9.632812 11.335938 9.636719 C 11.375 9.644531 11.398438 9.617188 11.421875 9.597656 C 11.4375 9.574219 11.414062 9.574219 11.402344 9.570312 Z M 4.71875 10.777344 C 4.695312 10.769531 4.671875 10.785156 4.675781 10.804688 C 4.679688 10.824219 4.703125 10.839844 4.722656 10.851562 C 4.730469 10.855469 4.746094 10.839844 4.757812 10.839844 C 4.761719 10.800781 4.738281 10.789062 4.71875 10.777344 Z M 9.703125 11.304688 C 9.703125 11.320312 9.6875 11.351562 9.726562 11.34375 C 9.746094 11.335938 9.765625 11.320312 9.785156 11.3125 C 9.769531 11.300781 9.753906 11.292969 9.746094 11.28125 C 9.714844 11.269531 9.699219 11.285156 9.703125 11.304688 Z M 5.414062 5.378906 C 5.421875 5.386719 5.433594 5.402344 5.445312 5.410156 C 5.464844 5.417969 5.484375 5.410156 5.488281 5.386719 C 5.492188 5.367188 5.480469 5.359375 5.453125 5.355469 C 5.441406 5.359375 5.429688 5.367188 5.414062 5.378906 Z M 11.035156 10.445312 C 11.019531 10.441406 10.996094 10.460938 11.003906 10.46875 C 11.027344 10.488281 11.058594 10.496094 11.089844 10.507812 C 11.09375 10.511719 11.109375 10.5 11.128906 10.488281 C 11.089844 10.472656 11.0625 10.457031 11.035156 10.445312 Z M 2.757812 5.785156 C 2.761719 5.800781 2.773438 5.8125 2.785156 5.820312 C 2.800781 5.832031 2.820312 5.820312 2.820312 5.804688 C 2.816406 5.785156 2.804688 5.769531 2.804688 5.765625 C 2.765625 5.757812 2.753906 5.769531 2.757812 5.785156 Z M 3.015625 14.21875 C 3.015625 14.230469 3.03125 14.246094 3.042969 14.25 C 3.054688 14.253906 3.082031 14.246094 3.082031 14.242188 C 3.089844 14.214844 3.058594 14.21875 3.050781 14.207031 C 3.03125 14.199219 3.015625 14.195312 3.015625 14.21875 Z M 3.429688 5.585938 C 3.445312 5.597656 3.460938 5.589844 3.464844 5.574219 C 3.46875 5.542969 3.457031 5.527344 3.425781 5.527344 C 3.414062 5.527344 3.398438 5.535156 3.378906 5.546875 C 3.398438 5.566406 3.414062 5.578125 3.429688 5.585938 Z M 11.789062 10.328125 C 11.796875 10.332031 11.808594 10.339844 11.816406 10.339844 C 11.824219 10.339844 11.832031 10.332031 11.839844 10.324219 C 11.828125 10.320312 11.820312 10.3125 11.804688 10.308594 C 11.800781 10.3125 11.796875 10.320312 11.789062 10.328125 Z M 4.484375 4.917969 C 4.476562 4.917969 4.464844 4.917969 4.457031 4.914062 C 4.472656 4.925781 4.488281 4.941406 4.503906 4.949219 C 4.511719 4.953125 4.523438 4.945312 4.53125 4.941406 C 4.527344 4.910156 4.503906 4.921875 4.484375 4.917969 Z M 11.265625 15.175781 C 11.242188 15.179688 11.210938 15.179688 11.21875 15.214844 C 11.222656 15.242188 11.246094 15.234375 11.265625 15.226562 C 11.308594 15.207031 11.25 15.191406 11.265625 15.175781 C 11.261719 15.171875 11.265625 15.175781 11.265625 15.175781 Z M 5.941406 5.796875 C 5.9375 5.796875 5.921875 5.816406 5.921875 5.820312 C 5.929688 5.832031 5.941406 5.84375 5.953125 5.847656 C 5.957031 5.851562 5.96875 5.835938 5.984375 5.820312 C 5.964844 5.808594 5.953125 5.800781 5.941406 5.796875 Z M 11.480469 15.230469 C 11.488281 15.253906 11.449219 15.289062 11.496094 15.296875 C 11.511719 15.300781 11.523438 15.285156 11.542969 15.28125 C 11.519531 15.261719 11.5 15.246094 11.480469 15.230469 C 11.476562 15.230469 11.480469 15.230469 11.480469 15.230469 Z M 2.589844 7.148438 C 2.621094 7.15625 2.613281 7.128906 2.617188 7.113281 C 2.617188 7.101562 2.609375 7.085938 2.605469 7.074219 C 2.59375 7.085938 2.585938 7.09375 2.578125 7.105469 C 2.582031 7.121094 2.582031 7.148438 2.589844 7.148438 Z M 2.609375 6.773438 C 2.613281 6.785156 2.621094 6.796875 2.628906 6.800781 C 2.640625 6.808594 2.652344 6.804688 2.648438 6.785156 C 2.644531 6.777344 2.640625 6.765625 2.632812 6.746094 C 2.625 6.761719 2.613281 6.765625 2.609375 6.773438 Z M 2.554688 6.332031 C 2.5625 6.339844 2.566406 6.355469 2.574219 6.359375 C 2.578125 6.359375 2.589844 6.347656 2.597656 6.347656 C 2.589844 6.339844 2.582031 6.332031 2.574219 6.324219 C 2.566406 6.324219 2.558594 6.328125 2.554688 6.332031 Z M 11.5 9.8125 C 11.492188 9.816406 11.480469 9.828125 11.476562 9.839844 C 11.476562 9.84375 11.484375 9.855469 11.488281 9.863281 C 11.496094 9.855469 11.503906 9.84375 11.515625 9.835938 C 11.507812 9.824219 11.523438 9.804688 11.5 9.8125 Z M 4.996094 5.140625 C 4.992188 5.144531 5 5.152344 5.003906 5.160156 C 5.011719 5.15625 5.027344 5.15625 5.03125 5.148438 C 5.035156 5.140625 5.027344 5.125 5.019531 5.109375 C 5.007812 5.125 4.996094 5.132812 4.996094 5.140625 Z M 11.402344 9.757812 C 11.394531 9.769531 11.378906 9.777344 11.375 9.789062 C 11.371094 9.796875 11.378906 9.808594 11.382812 9.820312 C 11.394531 9.804688 11.410156 9.792969 11.429688 9.777344 C 11.417969 9.769531 11.410156 9.761719 11.402344 9.757812 Z M 2.683594 7.257812 C 2.679688 7.269531 2.6875 7.28125 2.683594 7.292969 C 2.691406 7.285156 2.703125 7.28125 2.710938 7.269531 C 2.714844 7.261719 2.710938 7.25 2.714844 7.222656 C 2.695312 7.242188 2.6875 7.25 2.683594 7.257812 Z M 3.046875 5.714844 C 3.042969 5.703125 3.039062 5.6875 3.035156 5.675781 C 3.03125 5.675781 3.023438 5.679688 3.019531 5.683594 C 3.03125 5.695312 3.039062 5.707031 3.046875 5.714844 C 3.050781 5.714844 3.046875 5.714844 3.046875 5.714844 Z M 11.445312 10.554688 C 11.453125 10.558594 11.457031 10.566406 11.464844 10.5625 C 11.46875 10.5625 11.476562 10.550781 11.476562 10.546875 C 11.472656 10.542969 11.464844 10.539062 11.460938 10.535156 C 11.453125 10.542969 11.453125 10.546875 11.445312 10.554688 Z M 11.542969 9.292969 C 11.550781 9.296875 11.5625 9.289062 11.574219 9.289062 C 11.566406 9.285156 11.558594 9.273438 11.550781 9.273438 C 11.542969 9.269531 11.53125 9.273438 11.507812 9.277344 C 11.523438 9.285156 11.53125 9.292969 11.542969 9.292969 Z M 3.125 5.527344 C 3.121094 5.515625 3.117188 5.503906 3.113281 5.488281 C 3.105469 5.492188 3.101562 5.496094 3.097656 5.5 C 3.105469 5.511719 3.117188 5.519531 3.125 5.527344 C 3.128906 5.527344 3.125 5.527344 3.125 5.527344 Z M 11.113281 15.457031 C 11.117188 15.460938 11.125 15.464844 11.128906 15.46875 C 11.132812 15.460938 11.140625 15.457031 11.140625 15.449219 C 11.136719 15.445312 11.128906 15.441406 11.125 15.4375 C 11.121094 15.445312 11.113281 15.453125 11.113281 15.457031 Z M 5.757812 5.710938 C 5.765625 5.714844 5.773438 5.726562 5.777344 5.722656 C 5.78125 5.722656 5.785156 5.710938 5.789062 5.707031 C 5.785156 5.703125 5.777344 5.699219 5.769531 5.695312 C 5.765625 5.699219 5.761719 5.707031 5.757812 5.710938 Z M 11.449219 14.445312 C 11.449219 14.445312 11.457031 14.441406 11.457031 14.4375 C 11.453125 14.433594 11.449219 14.425781 11.449219 14.421875 C 11.441406 14.425781 11.4375 14.425781 11.429688 14.429688 C 11.4375 14.4375 11.441406 14.445312 11.449219 14.445312 Z M 6.921875 7.457031 C 6.921875 7.457031 6.914062 7.449219 6.914062 7.449219 C 6.90625 7.453125 6.902344 7.457031 6.894531 7.457031 C 6.898438 7.464844 6.902344 7.472656 6.90625 7.476562 C 6.914062 7.46875 6.917969 7.464844 6.921875 7.457031 Z M 11.046875 10.589844 C 11.046875 10.59375 11.058594 10.597656 11.066406 10.601562 C 11.066406 10.59375 11.074219 10.589844 11.074219 10.582031 C 11.074219 10.578125 11.0625 10.574219 11.058594 10.570312 C 11.054688 10.578125 11.046875 10.585938 11.046875 10.589844 Z M 10.242188 12.378906 C 10.242188 12.386719 10.253906 12.390625 10.257812 12.390625 C 10.261719 12.386719 10.269531 12.378906 10.269531 12.375 C 10.269531 12.367188 10.257812 12.367188 10.253906 12.363281 C 10.25 12.367188 10.242188 12.375 10.242188 12.378906 Z M 6.859375 13.527344 C 6.859375 13.53125 6.871094 13.539062 6.875 13.535156 C 6.878906 13.535156 6.886719 13.523438 6.886719 13.519531 C 6.882812 13.515625 6.875 13.511719 6.871094 13.507812 C 6.863281 13.515625 6.855469 13.523438 6.859375 13.527344 Z M 11.582031 14.421875 C 11.582031 14.425781 11.585938 14.433594 11.585938 14.441406 C 11.597656 14.4375 11.601562 14.433594 11.613281 14.429688 C 11.609375 14.425781 11.605469 14.417969 11.601562 14.410156 C 11.59375 14.414062 11.585938 14.417969 11.582031 14.421875 Z M 4.597656 10.8125 C 4.59375 10.816406 4.597656 10.824219 4.601562 10.832031 C 4.609375 10.828125 4.617188 10.824219 4.625 10.820312 C 4.621094 10.8125 4.617188 10.808594 4.613281 10.800781 C 4.609375 10.804688 4.601562 10.808594 4.597656 10.8125 Z M 7.203125 7.796875 C 7.203125 7.792969 7.207031 7.789062 7.207031 7.785156 C 7.203125 7.78125 7.191406 7.785156 7.1875 7.78125 C 7.1875 7.78125 7.1875 7.785156 7.183594 7.789062 C 7.1875 7.792969 7.195312 7.792969 7.203125 7.796875 Z M 11.5 14.683594 C 11.5 14.6875 11.503906 14.695312 11.507812 14.695312 C 11.511719 14.695312 11.515625 14.691406 11.523438 14.691406 C 11.519531 14.6875 11.515625 14.679688 11.511719 14.671875 C 11.507812 14.675781 11.503906 14.679688 11.5 14.683594 Z M 2.757812 13.972656 C 2.757812 13.96875 2.761719 13.964844 2.761719 13.957031 C 2.761719 13.953125 2.757812 13.949219 2.753906 13.953125 C 2.75 13.953125 2.746094 13.957031 2.742188 13.957031 C 2.746094 13.964844 2.75 13.96875 2.757812 13.972656 Z M 10.621094 13.15625 C 10.617188 13.15625 10.609375 13.15625 10.601562 13.160156 C 10.605469 13.164062 10.605469 13.175781 10.609375 13.179688 C 10.613281 13.183594 10.621094 13.179688 10.628906 13.179688 C 10.628906 13.171875 10.625 13.160156 10.621094 13.15625 Z M 11.011719 10.269531 L 11.003906 10.269531 L 11.003906 10.273438 Z M 6.585938 6.769531 C 6.59375 6.769531 6.601562 6.769531 6.613281 6.769531 C 6.613281 6.765625 6.605469 6.761719 6.605469 6.765625 C 6.597656 6.761719 6.589844 6.765625 6.585938 6.769531 Z M 4.738281 5.105469 C 4.742188 5.109375 4.75 5.109375 4.753906 5.113281 C 4.753906 5.109375 4.75 5.105469 4.746094 5.105469 C 4.746094 5.101562 4.738281 5.105469 4.738281 5.105469 Z M 3.128906 5.527344 C 3.132812 5.535156 3.113281 5.554688 3.140625 5.550781 C 3.136719 5.542969 3.132812 5.535156 3.128906 5.527344 C 3.125 5.527344 3.128906 5.527344 3.128906 5.527344 Z M 3.050781 5.714844 C 3.058594 5.722656 3.0625 5.730469 3.070312 5.738281 C 3.074219 5.734375 3.078125 5.730469 3.078125 5.730469 C 3.070312 5.726562 3.058594 5.71875 3.050781 5.714844 C 3.046875 5.714844 3.050781 5.714844 3.050781 5.714844 Z M 9.972656 15.039062 C 9.960938 15.035156 9.953125 15.035156 9.945312 15.035156 C 9.945312 15.035156 9.949219 15.03125 9.949219 15.03125 C 9.949219 15.039062 9.953125 15.046875 9.957031 15.050781 C 9.960938 15.046875 9.964844 15.042969 9.972656 15.039062 Z M 2.753906 6.710938 C 2.753906 6.714844 2.753906 6.71875 2.75 6.71875 C 2.753906 6.71875 2.753906 6.714844 2.753906 6.710938 C 2.757812 6.714844 2.753906 6.710938 2.753906 6.710938 Z M 2.871094 7.300781 C 2.871094 7.300781 2.863281 7.296875 2.863281 7.300781 C 2.859375 7.300781 2.859375 7.304688 2.859375 7.304688 C 2.863281 7.300781 2.867188 7.300781 2.871094 7.300781 C 2.871094 7.296875 2.871094 7.300781 2.871094 7.300781 Z M 2.871094 7.300781 " fill-opacity="1" fill-rule="nonzero"/></g></g></g><g clip-path="url(#e3aa1dcb37)"><path fill="#000000" d="M 13.550781 1.125 C 13.539062 1.128906 13.527344 1.128906 13.519531 1.117188 C 13.507812 1.101562 13.492188 1.089844 13.476562 1.117188 C 13.46875 1.132812 13.480469 1.144531 13.496094 1.15625 C 13.546875 1.1875 13.550781 1.207031 13.515625 1.253906 C 13.507812 1.261719 13.492188 1.269531 13.492188 1.28125 C 13.488281 1.300781 13.496094 1.34375 13.464844 1.292969 C 13.457031 1.28125 13.441406 1.292969 13.429688 1.304688 C 13.402344 1.324219 13.394531 1.3125 13.386719 1.28125 C 13.378906 1.25 13.382812 1.21875 13.386719 1.1875 C 13.390625 1.160156 13.425781 1.121094 13.351562 1.136719 C 13.316406 1.140625 13.3125 1.132812 13.316406 1.179688 C 13.320312 1.210938 13.304688 1.246094 13.335938 1.273438 C 13.339844 1.277344 13.339844 1.289062 13.335938 1.292969 C 13.328125 1.304688 13.3125 1.300781 13.308594 1.296875 C 13.273438 1.253906 13.210938 1.316406 13.179688 1.261719 C 13.179688 1.253906 13.160156 1.261719 13.15625 1.273438 C 13.152344 1.285156 13.160156 1.292969 13.171875 1.300781 C 13.179688 1.304688 13.1875 1.308594 13.195312 1.3125 C 13.191406 1.324219 13.175781 1.320312 13.164062 1.324219 C 13.152344 1.324219 13.140625 1.320312 13.128906 1.324219 C 13.105469 1.324219 13.097656 1.335938 13.117188 1.355469 C 13.160156 1.394531 13.15625 1.449219 13.175781 1.5 C 13.179688 1.511719 13.164062 1.527344 13.160156 1.519531 C 13.144531 1.484375 13.101562 1.507812 13.085938 1.484375 C 13.054688 1.449219 13.027344 1.429688 12.988281 1.46875 C 12.980469 1.476562 12.972656 1.472656 12.96875 1.46875 C 12.957031 1.457031 12.957031 1.445312 12.96875 1.429688 C 12.976562 1.425781 12.984375 1.414062 12.976562 1.40625 C 12.96875 1.394531 12.957031 1.40625 12.945312 1.410156 C 12.933594 1.410156 12.933594 1.421875 12.925781 1.429688 C 12.898438 1.457031 12.867188 1.484375 12.859375 1.414062 C 12.859375 1.390625 12.832031 1.390625 12.816406 1.382812 C 12.804688 1.378906 12.785156 1.390625 12.78125 1.40625 C 12.777344 1.421875 12.785156 1.429688 12.796875 1.433594 C 12.828125 1.445312 12.851562 1.476562 12.886719 1.480469 C 12.914062 1.488281 12.941406 1.503906 12.9375 1.542969 C 12.949219 1.542969 12.960938 1.539062 12.96875 1.542969 C 12.984375 1.550781 12.964844 1.554688 12.960938 1.558594 C 12.953125 1.574219 12.957031 1.582031 12.964844 1.589844 C 12.972656 1.597656 12.996094 1.59375 12.980469 1.613281 C 12.976562 1.617188 12.960938 1.617188 12.957031 1.613281 C 12.945312 1.601562 12.855469 1.621094 12.933594 1.566406 C 12.9375 1.5625 12.9375 1.550781 12.941406 1.539062 C 12.878906 1.539062 12.847656 1.5625 12.84375 1.628906 C 12.839844 1.679688 12.796875 1.679688 12.757812 1.671875 C 12.734375 1.667969 12.714844 1.652344 12.695312 1.667969 C 12.6875 1.675781 12.691406 1.683594 12.695312 1.695312 C 12.707031 1.726562 12.738281 1.707031 12.757812 1.710938 C 12.777344 1.71875 12.789062 1.707031 12.808594 1.703125 C 12.808594 1.699219 12.8125 1.695312 12.8125 1.695312 C 12.816406 1.695312 12.816406 1.699219 12.820312 1.699219 C 12.816406 1.703125 12.8125 1.703125 12.808594 1.703125 C 12.8125 1.71875 12.808594 1.730469 12.792969 1.734375 C 12.78125 1.734375 12.777344 1.746094 12.78125 1.753906 C 12.785156 1.757812 12.796875 1.761719 12.800781 1.757812 C 12.835938 1.746094 12.863281 1.738281 12.871094 1.785156 C 12.871094 1.792969 12.878906 1.800781 12.886719 1.800781 C 12.898438 1.808594 12.929688 1.777344 12.925781 1.816406 C 12.925781 1.839844 12.902344 1.84375 12.882812 1.847656 C 12.832031 1.859375 12.832031 1.871094 12.867188 1.914062 C 12.894531 1.941406 12.90625 1.96875 12.945312 1.941406 C 12.957031 1.933594 12.980469 1.933594 12.960938 1.953125 C 12.9375 1.972656 12.953125 1.996094 12.9375 2.011719 C 12.917969 2.039062 12.925781 2.054688 12.960938 2.066406 C 12.992188 2.074219 13.007812 2.085938 12.992188 2.125 C 12.980469 2.171875 12.984375 2.226562 13.03125 2.261719 C 13.042969 2.265625 13.039062 2.269531 13.019531 2.289062 C 12.945312 2.359375 12.945312 2.359375 13.023438 2.429688 C 13.039062 2.441406 13.050781 2.453125 13.042969 2.472656 C 13.039062 2.496094 13.015625 2.492188 13 2.488281 C 12.980469 2.480469 12.949219 2.492188 12.957031 2.5 C 12.980469 2.527344 12.925781 2.570312 12.972656 2.585938 C 13.027344 2.605469 13.039062 2.644531 13.03125 2.695312 C 13.027344 2.722656 13.035156 2.738281 13.066406 2.742188 C 13.105469 2.75 13.113281 2.769531 13.089844 2.804688 C 13.0625 2.847656 13.070312 2.875 13.113281 2.910156 C 13.167969 2.949219 13.171875 3.019531 13.179688 3.078125 C 13.183594 3.101562 13.195312 3.101562 13.203125 3.105469 C 13.238281 3.121094 13.273438 3.132812 13.242188 3.183594 C 13.226562 3.203125 13.246094 3.210938 13.257812 3.21875 C 13.339844 3.328125 13.421875 3.433594 13.492188 3.554688 C 13.527344 3.617188 13.585938 3.671875 13.644531 3.726562 C 13.6875 3.769531 13.714844 3.828125 13.757812 3.875 C 13.816406 3.941406 13.800781 4.027344 13.789062 4.105469 C 13.773438 4.230469 13.78125 4.355469 13.785156 4.484375 C 13.789062 4.652344 13.792969 4.820312 13.757812 4.984375 C 13.738281 5.058594 13.746094 5.132812 13.757812 5.203125 C 13.773438 5.320312 13.757812 5.429688 13.75 5.542969 C 13.738281 5.679688 13.734375 5.816406 13.753906 5.953125 C 13.765625 6.023438 13.753906 6.09375 13.757812 6.160156 C 13.761719 6.398438 13.777344 6.636719 13.769531 6.875 C 13.765625 6.90625 13.777344 6.9375 13.785156 6.96875 C 13.792969 7.003906 13.808594 7.03125 13.847656 7.027344 C 13.886719 7.023438 13.910156 6.996094 13.910156 6.960938 C 13.910156 6.882812 13.925781 6.804688 13.925781 6.726562 C 13.925781 6.648438 13.933594 6.574219 13.921875 6.496094 C 13.914062 6.464844 13.921875 6.425781 13.933594 6.394531 C 13.941406 6.378906 13.949219 6.359375 13.945312 6.34375 C 13.902344 6.175781 13.957031 6.003906 13.949219 5.832031 C 13.945312 5.773438 13.949219 5.71875 13.96875 5.664062 C 13.992188 5.613281 13.972656 5.5625 13.976562 5.511719 C 13.976562 5.414062 13.972656 5.316406 13.972656 5.21875 C 13.972656 5.121094 13.949219 5.019531 13.960938 4.921875 C 13.972656 4.832031 13.957031 4.746094 13.964844 4.660156 C 13.976562 4.488281 13.980469 4.316406 13.980469 4.140625 C 13.980469 4.117188 13.984375 4.09375 14.011719 4.085938 C 14.039062 4.078125 14.046875 4.089844 14.058594 4.121094 C 14.066406 4.140625 14.097656 4.136719 14.113281 4.109375 C 14.128906 4.089844 14.144531 4.085938 14.148438 4.121094 C 14.148438 4.136719 14.152344 4.148438 14.171875 4.15625 C 14.230469 4.167969 14.226562 4.210938 14.234375 4.261719 C 14.246094 4.371094 14.238281 4.484375 14.238281 4.59375 C 14.238281 4.625 14.25 4.65625 14.285156 4.664062 C 14.320312 4.671875 14.351562 4.664062 14.375 4.628906 C 14.390625 4.605469 14.394531 4.574219 14.394531 4.546875 C 14.398438 4.453125 14.398438 4.363281 14.398438 4.273438 C 14.398438 4.238281 14.394531 4.214844 14.445312 4.222656 C 14.492188 4.234375 14.542969 4.210938 14.585938 4.246094 C 14.589844 4.253906 14.597656 4.257812 14.601562 4.246094 C 14.621094 4.207031 14.65625 4.222656 14.675781 4.234375 C 14.738281 4.257812 14.800781 4.222656 14.863281 4.246094 C 14.867188 4.25 14.875 4.246094 14.882812 4.246094 C 14.953125 4.21875 15.027344 4.203125 15.101562 4.1875 C 15.117188 4.1875 15.125 4.175781 15.136719 4.167969 C 15.148438 4.15625 15.164062 4.140625 15.175781 4.148438 C 15.230469 4.191406 15.269531 4.136719 15.3125 4.121094 C 15.328125 4.117188 15.347656 4.101562 15.359375 4.101562 C 15.46875 4.128906 15.539062 4.046875 15.621094 4.003906 C 15.660156 3.988281 15.695312 3.980469 15.730469 3.972656 C 15.808594 3.953125 15.839844 3.886719 15.890625 3.839844 C 15.945312 3.789062 15.984375 3.722656 16.054688 3.6875 C 16.105469 3.660156 16.128906 3.609375 16.164062 3.574219 C 16.203125 3.53125 16.246094 3.5 16.296875 3.472656 C 16.371094 3.433594 16.425781 3.371094 16.449219 3.285156 C 16.453125 3.273438 16.449219 3.257812 16.457031 3.25 C 16.523438 3.207031 16.523438 3.128906 16.550781 3.066406 C 16.574219 3.015625 16.59375 2.957031 16.628906 2.90625 C 16.640625 2.890625 16.652344 2.878906 16.648438 2.863281 C 16.625 2.785156 16.671875 2.722656 16.683594 2.65625 C 16.6875 2.636719 16.703125 2.609375 16.679688 2.605469 C 16.617188 2.59375 16.644531 2.558594 16.660156 2.539062 C 16.703125 2.496094 16.703125 2.46875 16.648438 2.441406 C 16.617188 2.429688 16.625 2.417969 16.652344 2.40625 C 16.664062 2.402344 16.695312 2.402344 16.683594 2.394531 C 16.652344 2.371094 16.691406 2.335938 16.664062 2.324219 C 16.59375 2.292969 16.625 2.234375 16.625 2.1875 C 16.625 2.132812 16.613281 2.101562 16.5625 2.082031 C 16.546875 2.078125 16.542969 2.066406 16.550781 2.054688 C 16.585938 2.015625 16.570312 2.007812 16.527344 1.988281 C 16.503906 1.980469 16.484375 1.933594 16.476562 1.902344 C 16.449219 1.777344 16.355469 1.679688 16.324219 1.558594 C 16.300781 1.457031 16.21875 1.402344 16.171875 1.324219 C 16.144531 1.269531 16.078125 1.273438 16.058594 1.222656 C 16.035156 1.167969 15.964844 1.167969 15.941406 1.109375 C 15.941406 1.105469 15.929688 1.105469 15.921875 1.101562 C 15.882812 1.09375 15.847656 1.078125 15.875 1.027344 C 15.882812 1.015625 15.878906 1.007812 15.867188 1.003906 C 15.863281 1.003906 15.851562 1.007812 15.847656 1.011719 C 15.832031 1.070312 15.824219 1.019531 15.8125 1.007812 C 15.773438 0.984375 15.722656 0.976562 15.6875 0.941406 C 15.667969 0.925781 15.648438 0.914062 15.632812 0.894531 C 15.597656 0.839844 15.535156 0.828125 15.480469 0.800781 C 15.4375 0.777344 15.40625 0.75 15.386719 0.703125 C 15.378906 0.675781 15.359375 0.667969 15.351562 0.691406 C 15.332031 0.75 15.289062 0.722656 15.257812 0.726562 C 15.234375 0.730469 15.207031 0.703125 15.179688 0.722656 C 15.175781 0.722656 15.167969 0.71875 15.160156 0.714844 C 15.128906 0.707031 15.175781 0.675781 15.152344 0.671875 C 15.136719 0.671875 15.140625 0.710938 15.109375 0.714844 C 15.0625 0.726562 15.019531 0.707031 14.976562 0.691406 C 14.941406 0.675781 14.902344 0.679688 14.882812 0.714844 C 14.839844 0.792969 14.792969 0.8125 14.695312 0.789062 C 14.675781 0.785156 14.667969 0.796875 14.652344 0.800781 C 14.621094 0.8125 14.589844 0.832031 14.582031 0.769531 C 14.574219 0.734375 14.546875 0.75 14.53125 0.777344 C 14.523438 0.789062 14.53125 0.835938 14.503906 0.785156 C 14.492188 0.761719 14.472656 0.769531 14.453125 0.78125 C 14.433594 0.792969 14.4375 0.804688 14.449219 0.824219 C 14.472656 0.855469 14.472656 0.875 14.421875 0.863281 C 14.410156 0.859375 14.398438 0.855469 14.398438 0.875 C 14.398438 0.929688 14.355469 0.910156 14.34375 0.902344 C 14.3125 0.878906 14.261719 0.886719 14.25 0.835938 C 14.246094 0.828125 14.230469 0.828125 14.222656 0.832031 C 14.210938 0.835938 14.21875 0.847656 14.222656 0.855469 C 14.246094 0.910156 14.230469 0.953125 14.179688 0.976562 C 14.152344 0.988281 14.148438 1.058594 14.105469 1.011719 C 14.078125 0.984375 14.046875 0.972656 14.015625 0.960938 C 13.976562 0.945312 13.984375 0.921875 13.988281 0.894531 C 13.988281 0.890625 13.992188 0.878906 14 0.878906 C 14.007812 0.875 14.007812 0.886719 14.011719 0.894531 C 14.019531 0.902344 14.019531 0.929688 14.039062 0.90625 C 14.046875 0.894531 14.074219 0.875 14.046875 0.859375 C 14.035156 0.851562 14.019531 0.835938 14.011719 0.835938 C 13.972656 0.839844 13.960938 0.824219 13.960938 0.789062 C 13.960938 0.773438 13.941406 0.765625 13.925781 0.769531 C 13.910156 0.777344 13.898438 0.789062 13.894531 0.800781 C 13.886719 0.820312 13.902344 0.832031 13.917969 0.832031 C 13.945312 0.835938 13.953125 0.855469 13.960938 0.878906 C 13.976562 0.921875 13.933594 0.910156 13.921875 0.925781 C 13.90625 0.941406 13.898438 0.953125 13.910156 0.976562 C 13.921875 1 13.933594 0.996094 13.949219 0.980469 C 13.96875 0.964844 13.988281 0.988281 14.003906 0.988281 C 14.011719 0.988281 14.019531 0.992188 14.015625 1.003906 C 14.015625 1.011719 14.007812 1.011719 14 1.011719 C 13.960938 1.007812 13.953125 1.03125 13.941406 1.0625 C 13.929688 1.097656 13.898438 1.132812 13.851562 1.117188 C 13.804688 1.105469 13.796875 1.164062 13.757812 1.164062 C 13.753906 1.171875 13.757812 1.183594 13.738281 1.1875 C 13.738281 1.1875 13.734375 1.183594 13.734375 1.183594 C 13.734375 1.167969 13.746094 1.164062 13.757812 1.164062 C 13.753906 1.132812 13.765625 1.113281 13.792969 1.097656 C 13.816406 1.085938 13.835938 1.058594 13.824219 1.03125 C 13.816406 1.007812 13.796875 0.992188 13.769531 0.980469 C 13.722656 0.960938 13.726562 0.980469 13.71875 1.007812 C 13.714844 1.019531 13.707031 1.03125 13.703125 1.046875 C 13.6875 1.089844 13.664062 1.097656 13.625 1.070312 C 13.597656 1.050781 13.574219 1.019531 13.53125 1.015625 C 13.503906 1.015625 13.496094 0.996094 13.515625 0.972656 C 13.527344 0.960938 13.527344 0.949219 13.507812 0.945312 C 13.496094 0.941406 13.480469 0.949219 13.484375 0.960938 C 13.492188 1.003906 13.449219 1.070312 13.535156 1.082031 C 13.550781 1.089844 13.554688 1.109375 13.550781 1.125 C 13.5625 1.121094 13.574219 1.121094 13.578125 1.136719 C 13.582031 1.144531 13.578125 1.152344 13.570312 1.148438 C 13.554688 1.148438 13.550781 1.136719 13.550781 1.125 Z M 13.285156 1.332031 C 13.285156 1.332031 13.285156 1.328125 13.285156 1.328125 C 13.285156 1.328125 13.289062 1.328125 13.289062 1.328125 C 13.289062 1.328125 13.285156 1.328125 13.285156 1.332031 C 13.277344 1.359375 13.289062 1.382812 13.292969 1.40625 C 13.296875 1.417969 13.289062 1.429688 13.277344 1.433594 C 13.269531 1.433594 13.253906 1.433594 13.25 1.429688 C 13.226562 1.402344 13.246094 1.375 13.246094 1.351562 C 13.246094 1.324219 13.269531 1.332031 13.285156 1.332031 Z M 13.375 1.351562 C 13.375 1.335938 13.382812 1.332031 13.394531 1.332031 C 13.414062 1.332031 13.414062 1.347656 13.414062 1.363281 C 13.414062 1.371094 13.414062 1.382812 13.398438 1.378906 C 13.386719 1.371094 13.371094 1.367188 13.375 1.351562 Z M 12.851562 1.675781 C 12.855469 1.664062 12.863281 1.652344 12.878906 1.648438 C 12.890625 1.640625 12.890625 1.652344 12.886719 1.664062 C 12.882812 1.675781 12.894531 1.699219 12.867188 1.699219 C 12.855469 1.699219 12.851562 1.691406 12.851562 1.675781 Z M 13.109375 1.5625 C 13.109375 1.550781 13.113281 1.539062 13.125 1.535156 C 13.125 1.535156 13.132812 1.542969 13.132812 1.542969 C 13.125 1.550781 13.121094 1.5625 13.113281 1.570312 C 13.113281 1.566406 13.113281 1.5625 13.109375 1.5625 Z M 12.976562 1.722656 C 12.972656 1.722656 12.964844 1.730469 12.964844 1.71875 C 12.964844 1.707031 12.972656 1.703125 12.980469 1.703125 C 12.988281 1.703125 12.996094 1.707031 12.996094 1.714844 C 13 1.730469 12.984375 1.71875 12.976562 1.722656 Z M 16.066406 6.09375 C 16.074219 6.277344 16.082031 6.460938 16.054688 6.644531 C 16.046875 6.6875 16.0625 6.726562 16.109375 6.730469 C 16.160156 6.738281 16.164062 6.695312 16.179688 6.660156 C 16.214844 6.542969 16.210938 6.421875 16.203125 6.304688 C 16.199219 6.230469 16.234375 6.171875 16.253906 6.109375 C 16.265625 6.082031 16.285156 6.058594 16.328125 6.078125 C 16.398438 6.117188 16.484375 6.105469 16.5625 6.128906 C 16.621094 6.148438 16.6875 6.179688 16.753906 6.136719 C 16.832031 6.175781 16.886719 6.136719 16.9375 6.082031 C 16.941406 6.078125 16.945312 6.078125 16.949219 6.078125 C 17.003906 6.070312 17.019531 6.0625 17.066406 6.015625 C 17.074219 6.007812 17.082031 6.003906 17.09375 6.007812 C 17.128906 6.027344 17.128906 5.996094 17.128906 5.976562 C 17.128906 5.941406 17.132812 5.910156 17.179688 5.914062 C 17.199219 5.914062 17.210938 5.90625 17.214844 5.886719 C 17.21875 5.871094 17.230469 5.847656 17.242188 5.851562 C 17.296875 5.871094 17.308594 5.863281 17.269531 5.8125 C 17.261719 5.808594 17.265625 5.800781 17.273438 5.796875 C 17.28125 5.796875 17.292969 5.800781 17.292969 5.804688 C 17.296875 5.886719 17.351562 5.828125 17.382812 5.832031 C 17.390625 5.835938 17.40625 5.839844 17.40625 5.824219 C 17.40625 5.820312 17.398438 5.8125 17.390625 5.808594 C 17.367188 5.804688 17.363281 5.796875 17.371094 5.773438 C 17.375 5.753906 17.386719 5.726562 17.40625 5.734375 C 17.476562 5.761719 17.464844 5.699219 17.460938 5.679688 C 17.453125 5.621094 17.476562 5.566406 17.453125 5.511719 C 17.441406 5.476562 17.4375 5.441406 17.417969 5.410156 C 17.394531 5.375 17.410156 5.339844 17.449219 5.339844 C 17.46875 5.34375 17.484375 5.347656 17.488281 5.324219 C 17.496094 5.300781 17.484375 5.285156 17.457031 5.285156 C 17.449219 5.285156 17.4375 5.28125 17.4375 5.273438 C 17.441406 5.261719 17.453125 5.261719 17.460938 5.265625 C 17.464844 5.265625 17.472656 5.265625 17.476562 5.265625 C 17.488281 5.242188 17.53125 5.257812 17.53125 5.226562 C 17.527344 5.207031 17.496094 5.203125 17.480469 5.191406 C 17.421875 5.160156 17.417969 5.125 17.46875 5.082031 C 17.492188 5.066406 17.484375 5.019531 17.460938 5.011719 C 17.445312 5.007812 17.4375 5.015625 17.4375 5.03125 C 17.4375 5.046875 17.441406 5.066406 17.433594 5.082031 C 17.421875 5.089844 17.421875 5.121094 17.414062 5.113281 C 17.398438 5.105469 17.363281 5.105469 17.367188 5.078125 C 17.367188 5.050781 17.34375 5.015625 17.382812 4.996094 C 17.363281 4.972656 17.324219 4.964844 17.320312 4.933594 C 17.308594 4.886719 17.308594 4.839844 17.238281 4.851562 C 17.230469 4.855469 17.234375 4.832031 17.238281 4.820312 C 17.242188 4.785156 17.242188 4.753906 17.199219 4.738281 C 17.164062 4.726562 17.140625 4.597656 17.167969 4.566406 C 17.183594 4.550781 17.175781 4.496094 17.226562 4.519531 C 17.230469 4.519531 17.246094 4.507812 17.242188 4.496094 C 17.242188 4.480469 17.226562 4.472656 17.21875 4.476562 C 17.191406 4.492188 17.15625 4.484375 17.136719 4.519531 C 17.121094 4.550781 17.089844 4.5625 17.082031 4.503906 C 17.070312 4.449219 17.03125 4.410156 16.988281 4.371094 C 16.964844 4.351562 16.941406 4.332031 16.949219 4.289062 C 16.953125 4.28125 16.953125 4.238281 16.917969 4.273438 C 16.90625 4.285156 16.890625 4.28125 16.878906 4.269531 C 16.832031 4.207031 16.757812 4.183594 16.699219 4.136719 C 16.621094 4.082031 16.535156 4.078125 16.449219 4.070312 C 16.425781 4.070312 16.414062 4.046875 16.386719 4.054688 C 16.375 4.0625 16.351562 4.039062 16.34375 4.070312 C 16.339844 4.089844 16.324219 4.089844 16.308594 4.089844 C 16.265625 4.09375 16.226562 4.105469 16.183594 4.125 C 16.152344 4.144531 16.109375 4.132812 16.070312 4.140625 C 15.988281 4.164062 15.910156 4.203125 15.839844 4.246094 C 15.8125 4.265625 15.789062 4.300781 15.765625 4.328125 C 15.660156 4.449219 15.582031 4.585938 15.527344 4.734375 C 15.519531 4.753906 15.527344 4.773438 15.527344 4.792969 C 15.527344 4.945312 15.554688 5.09375 15.578125 5.242188 C 15.585938 5.285156 15.613281 5.328125 15.59375 5.375 C 15.65625 5.425781 15.644531 5.511719 15.679688 5.578125 C 15.722656 5.648438 15.757812 5.71875 15.75 5.804688 C 15.75 5.820312 15.753906 5.835938 15.757812 5.847656 C 15.777344 5.90625 15.808594 5.917969 15.855469 5.878906 C 15.867188 5.871094 15.878906 5.859375 15.886719 5.847656 C 15.90625 5.8125 15.925781 5.785156 15.972656 5.808594 C 16.019531 5.828125 16.066406 5.847656 16.070312 5.90625 C 16.066406 5.96875 16.066406 6.03125 16.066406 6.09375 Z M 17.109375 4.570312 L 17.113281 4.566406 L 17.113281 4.574219 Z M 14.207031 0.597656 C 14.179688 0.628906 14.1875 0.664062 14.183594 0.699219 C 14.179688 0.714844 14.152344 0.726562 14.140625 0.710938 C 14.128906 0.6875 14.089844 0.703125 14.089844 0.667969 C 14.089844 0.664062 14.097656 0.65625 14.105469 0.65625 C 14.148438 0.65625 14.167969 0.636719 14.171875 0.597656 C 14.171875 0.585938 14.179688 0.582031 14.191406 0.582031 C 14.199219 0.585938 14.210938 0.59375 14.207031 0.597656 Z M 12.453125 1.867188 C 12.445312 1.867188 12.449219 1.855469 12.457031 1.851562 C 12.476562 1.839844 12.484375 1.863281 12.5 1.871094 C 12.503906 1.871094 12.511719 1.871094 12.519531 1.867188 C 12.558594 1.847656 12.546875 1.882812 12.546875 1.894531 C 12.550781 1.917969 12.539062 1.933594 12.503906 1.933594 C 12.46875 1.9375 12.484375 1.882812 12.453125 1.867188 Z M 13.65625 0.859375 C 13.578125 0.878906 13.574219 0.886719 13.601562 0.949219 C 13.609375 0.96875 13.617188 0.980469 13.640625 0.972656 C 13.664062 0.964844 13.683594 0.949219 13.671875 0.925781 C 13.65625 0.902344 13.664062 0.878906 13.65625 0.859375 Z M 13.613281 0.921875 C 13.621094 0.917969 13.628906 0.917969 13.636719 0.917969 C 13.644531 0.917969 13.65625 0.917969 13.65625 0.933594 C 13.65625 0.945312 13.648438 0.945312 13.636719 0.941406 C 13.628906 0.9375 13.621094 0.929688 13.613281 0.921875 Z M 16.824219 1.792969 C 16.820312 1.792969 16.828125 1.785156 16.835938 1.78125 C 16.859375 1.769531 16.921875 1.804688 16.921875 1.828125 C 16.921875 1.847656 16.90625 1.859375 16.878906 1.859375 C 16.863281 1.839844 16.851562 1.808594 16.824219 1.792969 Z M 17.691406 5.871094 C 17.707031 5.878906 17.703125 5.894531 17.6875 5.898438 C 17.664062 5.90625 17.660156 5.921875 17.648438 5.9375 C 17.640625 5.949219 17.628906 5.957031 17.617188 5.949219 C 17.609375 5.945312 17.605469 5.941406 17.605469 5.933594 C 17.601562 5.917969 17.613281 5.910156 17.625 5.90625 C 17.671875 5.90625 17.675781 5.886719 17.648438 5.851562 C 17.640625 5.84375 17.640625 5.832031 17.65625 5.828125 C 17.675781 5.835938 17.671875 5.863281 17.691406 5.871094 Z M 12.542969 1.097656 C 12.539062 1.085938 12.542969 1.074219 12.550781 1.066406 C 12.558594 1.058594 12.570312 1.046875 12.582031 1.058594 C 12.601562 1.082031 12.621094 1.085938 12.640625 1.066406 C 12.652344 1.058594 12.660156 1.066406 12.664062 1.078125 C 12.664062 1.082031 12.65625 1.089844 12.65625 1.089844 C 12.621094 1.074219 12.59375 1.09375 12.574219 1.113281 C 12.554688 1.113281 12.546875 1.105469 12.542969 1.097656 Z M 16.992188 1.253906 C 16.976562 1.222656 17.023438 1.230469 17.027344 1.207031 C 17.03125 1.195312 17.042969 1.1875 17.054688 1.195312 C 17.066406 1.207031 17.066406 1.21875 17.054688 1.226562 C 17.035156 1.238281 17.019531 1.25 17.035156 1.273438 C 17.046875 1.285156 17.035156 1.285156 17.023438 1.289062 C 17 1.289062 17 1.265625 16.992188 1.253906 Z M 13.0625 0.722656 C 13.042969 0.703125 13.019531 0.6875 12.996094 0.71875 C 12.984375 0.734375 12.96875 0.726562 12.960938 0.710938 C 12.953125 0.691406 12.960938 0.683594 12.976562 0.675781 C 13.015625 0.664062 13.050781 0.683594 13.0625 0.722656 Z M 17.515625 4.378906 C 17.53125 4.382812 17.535156 4.394531 17.53125 4.40625 C 17.527344 4.425781 17.511719 4.441406 17.492188 4.429688 C 17.476562 4.414062 17.457031 4.394531 17.445312 4.398438 C 17.464844 4.417969 17.484375 4.367188 17.515625 4.378906 Z M 14.132812 0.519531 C 14.136719 0.511719 14.136719 0.5 14.144531 0.492188 C 14.160156 0.476562 14.179688 0.480469 14.195312 0.496094 C 14.199219 0.503906 14.207031 0.511719 14.21875 0.511719 C 14.226562 0.511719 14.246094 0.503906 14.230469 0.527344 C 14.226562 0.535156 14.21875 0.546875 14.210938 0.535156 C 14.199219 0.523438 14.195312 0.511719 14.179688 0.527344 C 14.164062 0.53125 14.148438 0.527344 14.132812 0.519531 Z M 12.691406 1.925781 C 12.652344 1.925781 12.675781 1.886719 12.65625 1.871094 C 12.632812 1.855469 12.648438 1.816406 12.65625 1.8125 C 12.679688 1.796875 12.6875 1.832031 12.707031 1.839844 C 12.722656 1.847656 12.722656 1.859375 12.707031 1.871094 C 12.6875 1.886719 12.6875 1.90625 12.691406 1.925781 Z M 12.683594 1.609375 C 12.683594 1.632812 12.660156 1.644531 12.640625 1.65625 C 12.628906 1.664062 12.609375 1.65625 12.605469 1.640625 C 12.601562 1.597656 12.636719 1.613281 12.648438 1.605469 C 12.667969 1.597656 12.683594 1.59375 12.683594 1.609375 Z M 12.695312 1.441406 C 12.6875 1.410156 12.714844 1.402344 12.734375 1.394531 C 12.753906 1.386719 12.765625 1.40625 12.765625 1.425781 C 12.761719 1.460938 12.714844 1.441406 12.707031 1.46875 C 12.6875 1.46875 12.695312 1.453125 12.695312 1.441406 Z M 16.777344 2.574219 C 16.78125 2.597656 16.78125 2.621094 16.75 2.625 C 16.734375 2.628906 16.71875 2.617188 16.71875 2.601562 C 16.722656 2.574219 16.734375 2.546875 16.738281 2.519531 C 16.773438 2.53125 16.769531 2.554688 16.777344 2.574219 Z M 12.421875 1.699219 C 12.429688 1.699219 12.441406 1.707031 12.4375 1.71875 C 12.433594 1.742188 12.398438 1.746094 12.398438 1.773438 C 12.386719 1.773438 12.394531 1.765625 12.394531 1.753906 C 12.429688 1.75 12.378906 1.703125 12.421875 1.699219 Z M 16.824219 2.609375 C 16.835938 2.609375 16.84375 2.613281 16.851562 2.613281 C 16.871094 2.613281 16.890625 2.617188 16.886719 2.640625 C 16.886719 2.65625 16.875 2.675781 16.855469 2.675781 C 16.835938 2.671875 16.835938 2.652344 16.832031 2.636719 C 16.832031 2.625 16.828125 2.617188 16.824219 2.609375 Z M 14.226562 0.441406 C 14.226562 0.429688 14.234375 0.421875 14.25 0.417969 C 14.265625 0.417969 14.277344 0.425781 14.28125 0.445312 C 14.28125 0.464844 14.265625 0.464844 14.253906 0.472656 C 14.234375 0.472656 14.230469 0.457031 14.226562 0.441406 Z M 12.566406 1.675781 C 12.574219 1.667969 12.589844 1.667969 12.59375 1.675781 C 12.609375 1.703125 12.578125 1.699219 12.574219 1.714844 C 12.570312 1.71875 12.570312 1.722656 12.570312 1.730469 C 12.570312 1.742188 12.574219 1.753906 12.554688 1.753906 C 12.53125 1.753906 12.535156 1.730469 12.527344 1.714844 C 12.527344 1.6875 12.554688 1.691406 12.566406 1.675781 Z M 13.113281 0.714844 C 13.097656 0.714844 13.085938 0.703125 13.085938 0.6875 C 13.085938 0.675781 13.097656 0.664062 13.109375 0.664062 C 13.128906 0.660156 13.132812 0.671875 13.136719 0.6875 C 13.136719 0.703125 13.128906 0.714844 13.113281 0.714844 Z M 12.804688 1.289062 C 12.820312 1.285156 12.828125 1.25 12.851562 1.277344 C 12.863281 1.289062 12.878906 1.3125 12.871094 1.320312 C 12.855469 1.335938 12.847656 1.304688 12.828125 1.300781 C 12.816406 1.300781 12.808594 1.3125 12.800781 1.316406 C 12.789062 1.316406 12.785156 1.3125 12.785156 1.304688 C 12.785156 1.289062 12.796875 1.289062 12.804688 1.289062 Z M 13.191406 1.128906 C 13.207031 1.121094 13.226562 1.128906 13.222656 1.148438 C 13.222656 1.183594 13.183594 1.179688 13.164062 1.191406 C 13.152344 1.199219 13.140625 1.199219 13.136719 1.179688 C 13.140625 1.148438 13.171875 1.140625 13.191406 1.128906 Z M 12.796875 2.015625 C 12.808594 1.996094 12.820312 1.957031 12.839844 1.964844 C 12.867188 1.980469 12.839844 2.007812 12.824219 2.023438 C 12.816406 2.039062 12.8125 2.050781 12.808594 2.066406 C 12.808594 2.070312 12.800781 2.070312 12.796875 2.070312 C 12.789062 2.070312 12.78125 2.066406 12.785156 2.050781 C 12.792969 2.042969 12.789062 2.027344 12.796875 2.015625 Z M 17.058594 6.273438 C 17.082031 6.277344 17.109375 6.285156 17.105469 6.296875 C 17.097656 6.324219 17.054688 6.277344 17.039062 6.3125 C 17.035156 6.320312 17.027344 6.3125 17.027344 6.300781 C 17.03125 6.289062 17.035156 6.269531 17.058594 6.273438 Z M 12.855469 0.960938 C 12.839844 1.019531 12.808594 0.964844 12.785156 0.972656 C 12.785156 0.972656 12.757812 0.976562 12.765625 0.957031 C 12.769531 0.945312 12.78125 0.933594 12.796875 0.941406 C 12.816406 0.949219 12.828125 0.96875 12.855469 0.960938 Z M 17.425781 5.992188 C 17.414062 6.007812 17.402344 6.03125 17.378906 6.035156 C 17.363281 6.035156 17.359375 6.023438 17.359375 6.011719 C 17.359375 5.976562 17.394531 5.992188 17.410156 5.976562 C 17.417969 5.976562 17.433594 5.980469 17.425781 5.992188 Z M 17.621094 5.472656 C 17.625 5.5 17.597656 5.488281 17.585938 5.492188 C 17.566406 5.496094 17.546875 5.492188 17.542969 5.472656 C 17.539062 5.453125 17.558594 5.457031 17.574219 5.453125 C 17.589844 5.457031 17.617188 5.445312 17.621094 5.472656 Z M 13.757812 0.457031 C 13.753906 0.472656 13.75 0.484375 13.730469 0.480469 C 13.714844 0.480469 13.703125 0.46875 13.703125 0.449219 C 13.707031 0.433594 13.714844 0.425781 13.734375 0.425781 C 13.75 0.429688 13.757812 0.441406 13.757812 0.457031 Z M 17.402344 4.925781 C 17.402344 4.910156 17.414062 4.894531 17.429688 4.894531 C 17.449219 4.894531 17.457031 4.910156 17.457031 4.929688 C 17.457031 4.945312 17.449219 4.957031 17.433594 4.960938 C 17.414062 4.957031 17.402344 4.945312 17.402344 4.925781 Z M 12.371094 2.15625 C 12.371094 2.136719 12.386719 2.132812 12.402344 2.132812 C 12.414062 2.132812 12.425781 2.144531 12.421875 2.15625 C 12.421875 2.175781 12.414062 2.183594 12.394531 2.1875 C 12.375 2.183594 12.367188 2.171875 12.371094 2.15625 Z M 16.683594 1.53125 C 16.683594 1.515625 16.691406 1.511719 16.707031 1.511719 C 16.722656 1.511719 16.734375 1.519531 16.734375 1.535156 C 16.738281 1.550781 16.722656 1.554688 16.707031 1.558594 C 16.695312 1.550781 16.679688 1.554688 16.683594 1.53125 Z M 12.394531 1.402344 C 12.410156 1.398438 12.425781 1.40625 12.429688 1.425781 C 12.433594 1.441406 12.421875 1.445312 12.410156 1.449219 C 12.394531 1.449219 12.382812 1.445312 12.375 1.429688 C 12.375 1.414062 12.382812 1.402344 12.394531 1.402344 Z M 13.929688 0.714844 C 13.902344 0.730469 13.894531 0.765625 13.867188 0.777344 C 13.863281 0.777344 13.855469 0.773438 13.855469 0.769531 C 13.851562 0.765625 13.917969 0.703125 13.925781 0.703125 C 13.925781 0.707031 13.929688 0.714844 13.929688 0.714844 Z M 17.863281 5.457031 C 17.878906 5.457031 17.886719 5.464844 17.886719 5.480469 C 17.882812 5.496094 17.875 5.507812 17.859375 5.507812 C 17.84375 5.507812 17.835938 5.5 17.839844 5.476562 C 17.84375 5.46875 17.847656 5.457031 17.863281 5.457031 Z M 16.824219 3.0625 C 16.8125 3.078125 16.839844 3.109375 16.808594 3.117188 C 16.796875 3.121094 16.789062 3.105469 16.792969 3.097656 C 16.808594 3.082031 16.789062 3.054688 16.808594 3.042969 C 16.824219 3.042969 16.828125 3.054688 16.824219 3.0625 Z M 12.691406 1.925781 C 12.726562 1.921875 12.710938 1.957031 12.726562 1.96875 C 12.730469 1.976562 12.746094 1.976562 12.738281 1.988281 C 12.730469 1.996094 12.710938 1.996094 12.699219 1.996094 C 12.683594 1.996094 12.691406 1.980469 12.695312 1.972656 C 12.703125 1.957031 12.699219 1.941406 12.691406 1.925781 Z M 17.328125 6.359375 C 17.339844 6.355469 17.335938 6.371094 17.335938 6.378906 C 17.339844 6.386719 17.339844 6.402344 17.324219 6.398438 C 17.316406 6.398438 17.308594 6.390625 17.300781 6.386719 C 17.308594 6.375 17.316406 6.363281 17.328125 6.359375 Z M 12.902344 1.113281 C 12.921875 1.109375 12.933594 1.121094 12.9375 1.140625 C 12.9375 1.15625 12.925781 1.164062 12.914062 1.164062 C 12.898438 1.167969 12.886719 1.160156 12.882812 1.140625 C 12.882812 1.128906 12.886719 1.117188 12.902344 1.113281 Z M 17.347656 5.96875 C 17.335938 5.96875 17.328125 5.953125 17.332031 5.949219 C 17.351562 5.933594 17.328125 5.894531 17.363281 5.890625 C 17.375 5.890625 17.371094 5.910156 17.371094 5.921875 C 17.367188 5.9375 17.378906 5.964844 17.347656 5.96875 Z M 12.640625 2.339844 C 12.640625 2.324219 12.65625 2.320312 12.667969 2.320312 C 12.683594 2.320312 12.6875 2.332031 12.6875 2.34375 C 12.6875 2.355469 12.679688 2.363281 12.664062 2.363281 C 12.65625 2.355469 12.640625 2.355469 12.640625 2.339844 Z M 12.472656 1.601562 C 12.484375 1.601562 12.496094 1.605469 12.5 1.621094 C 12.5 1.636719 12.488281 1.652344 12.476562 1.652344 C 12.460938 1.65625 12.449219 1.644531 12.445312 1.628906 C 12.445312 1.609375 12.457031 1.601562 12.472656 1.601562 Z M 17.199219 1.476562 C 17.203125 1.464844 17.214844 1.460938 17.222656 1.464844 C 17.234375 1.464844 17.246094 1.472656 17.246094 1.484375 C 17.246094 1.5 17.234375 1.507812 17.222656 1.507812 C 17.207031 1.503906 17.195312 1.492188 17.199219 1.476562 Z M 12.929688 2.425781 C 12.925781 2.4375 12.917969 2.445312 12.902344 2.445312 C 12.886719 2.441406 12.871094 2.433594 12.871094 2.414062 C 12.871094 2.398438 12.886719 2.390625 12.902344 2.386719 C 12.917969 2.394531 12.929688 2.402344 12.929688 2.425781 Z M 17.113281 4.351562 C 17.128906 4.363281 17.144531 4.375 17.15625 4.390625 C 17.160156 4.398438 17.15625 4.402344 17.144531 4.402344 C 17.125 4.394531 17.109375 4.382812 17.097656 4.363281 C 17.101562 4.351562 17.109375 4.347656 17.113281 4.351562 Z M 13.066406 1.148438 C 13.082031 1.152344 13.09375 1.167969 13.109375 1.175781 C 13.097656 1.183594 13.082031 1.195312 13.066406 1.199219 C 13.054688 1.207031 13.046875 1.183594 13.046875 1.167969 C 13.046875 1.160156 13.050781 1.140625 13.066406 1.148438 Z M 14.121094 0.84375 C 14.144531 0.847656 14.144531 0.867188 14.144531 0.882812 C 14.144531 0.894531 14.140625 0.90625 14.128906 0.902344 C 14.109375 0.898438 14.101562 0.882812 14.09375 0.867188 C 14.101562 0.855469 14.105469 0.84375 14.121094 0.84375 Z M 12.941406 0.871094 C 12.949219 0.890625 12.914062 0.90625 12.941406 0.921875 C 12.953125 0.929688 12.957031 0.941406 12.941406 0.941406 C 12.917969 0.9375 12.917969 0.910156 12.910156 0.894531 C 12.902344 0.863281 12.929688 0.878906 12.941406 0.871094 Z M 16.769531 2.378906 C 16.78125 2.378906 16.792969 2.386719 16.792969 2.402344 C 16.789062 2.421875 16.777344 2.433594 16.757812 2.429688 C 16.742188 2.429688 16.734375 2.421875 16.734375 2.40625 C 16.734375 2.386719 16.753906 2.382812 16.769531 2.378906 Z M 12.761719 2.1875 C 12.761719 2.167969 12.765625 2.152344 12.785156 2.148438 C 12.800781 2.144531 12.808594 2.15625 12.8125 2.167969 C 12.8125 2.1875 12.8125 2.203125 12.800781 2.203125 C 12.773438 2.207031 12.765625 2.203125 12.761719 2.1875 Z M 13.386719 0.914062 C 13.402344 0.914062 13.394531 0.9375 13.398438 0.949219 C 13.398438 0.960938 13.410156 0.980469 13.386719 0.980469 C 13.371094 0.980469 13.375 0.964844 13.378906 0.953125 C 13.382812 0.941406 13.363281 0.914062 13.386719 0.914062 Z M 13.703125 0.78125 C 13.714844 0.769531 13.714844 0.75 13.734375 0.746094 C 13.742188 0.746094 13.75 0.75 13.75 0.757812 C 13.742188 0.777344 13.726562 0.777344 13.714844 0.78125 C 13.710938 0.777344 13.699219 0.789062 13.703125 0.78125 Z M 14.722656 0.5625 C 14.738281 0.566406 14.746094 0.574219 14.742188 0.589844 C 14.742188 0.597656 14.734375 0.601562 14.722656 0.601562 C 14.707031 0.601562 14.703125 0.59375 14.703125 0.582031 C 14.703125 0.570312 14.710938 0.5625 14.722656 0.5625 Z M 15.085938 0.363281 C 15.101562 0.363281 15.105469 0.375 15.105469 0.386719 C 15.101562 0.402344 15.09375 0.410156 15.082031 0.410156 C 15.066406 0.40625 15.066406 0.398438 15.0625 0.386719 C 15.0625 0.375 15.070312 0.367188 15.085938 0.363281 Z M 17.238281 6.136719 C 17.238281 6.15625 17.230469 6.164062 17.210938 6.160156 C 17.199219 6.160156 17.183594 6.164062 17.1875 6.144531 C 17.1875 6.132812 17.199219 6.121094 17.214844 6.117188 C 17.226562 6.117188 17.238281 6.121094 17.238281 6.136719 Z M 12.769531 1.070312 C 12.785156 1.070312 12.792969 1.082031 12.792969 1.09375 C 12.792969 1.109375 12.789062 1.121094 12.773438 1.117188 C 12.761719 1.117188 12.75 1.105469 12.753906 1.09375 C 12.753906 1.082031 12.761719 1.070312 12.769531 1.070312 Z M 16.566406 1.789062 C 16.5625 1.777344 16.570312 1.769531 16.582031 1.769531 C 16.59375 1.769531 16.605469 1.765625 16.605469 1.785156 C 16.605469 1.792969 16.597656 1.800781 16.585938 1.804688 C 16.574219 1.804688 16.566406 1.800781 16.566406 1.789062 Z M 17.441406 5.78125 C 17.4375 5.777344 17.445312 5.769531 17.453125 5.769531 C 17.46875 5.769531 17.484375 5.773438 17.488281 5.796875 C 17.488281 5.800781 17.484375 5.804688 17.476562 5.816406 C 17.460938 5.804688 17.449219 5.792969 17.441406 5.78125 Z M 14.332031 0.429688 C 14.339844 0.425781 14.34375 0.4375 14.34375 0.441406 C 14.34375 0.453125 14.339844 0.460938 14.328125 0.457031 C 14.320312 0.453125 14.316406 0.449219 14.320312 0.4375 C 14.324219 0.4375 14.328125 0.429688 14.332031 0.429688 Z M 16.878906 1.90625 C 16.882812 1.917969 16.878906 1.925781 16.867188 1.925781 C 16.863281 1.925781 16.851562 1.917969 16.851562 1.914062 C 16.847656 1.902344 16.855469 1.894531 16.863281 1.894531 C 16.875 1.894531 16.878906 1.898438 16.878906 1.90625 Z M 17.839844 5.542969 C 17.851562 5.542969 17.859375 5.550781 17.855469 5.5625 C 17.855469 5.570312 17.847656 5.574219 17.84375 5.574219 C 17.832031 5.574219 17.828125 5.570312 17.828125 5.554688 C 17.832031 5.550781 17.835938 5.542969 17.839844 5.542969 Z M 16.785156 1.488281 C 16.789062 1.492188 16.796875 1.5 16.800781 1.503906 C 16.800781 1.511719 16.792969 1.519531 16.78125 1.519531 C 16.773438 1.515625 16.773438 1.511719 16.773438 1.503906 C 16.773438 1.496094 16.777344 1.488281 16.785156 1.488281 Z M 16.984375 1.429688 C 16.984375 1.425781 16.988281 1.421875 16.992188 1.421875 C 17 1.417969 17.003906 1.421875 17.007812 1.429688 C 17.007812 1.433594 17.003906 1.441406 16.996094 1.441406 C 16.988281 1.441406 16.984375 1.4375 16.984375 1.429688 Z M 13.140625 0.75 C 13.148438 0.75 13.15625 0.753906 13.15625 0.761719 C 13.15625 0.769531 13.148438 0.777344 13.140625 0.777344 C 13.132812 0.777344 13.128906 0.769531 13.125 0.761719 C 13.128906 0.753906 13.132812 0.75 13.140625 0.75 Z M 12.765625 2.105469 C 12.765625 2.125 12.75 2.128906 12.738281 2.132812 C 12.726562 2.136719 12.726562 2.128906 12.726562 2.121094 C 12.730469 2.105469 12.734375 2.09375 12.75 2.089844 C 12.761719 2.09375 12.765625 2.097656 12.765625 2.105469 Z M 17.425781 6.195312 C 17.433594 6.207031 17.425781 6.214844 17.414062 6.21875 C 17.402344 6.21875 17.394531 6.214844 17.394531 6.203125 C 17.394531 6.191406 17.402344 6.183594 17.410156 6.167969 C 17.417969 6.179688 17.425781 6.1875 17.425781 6.195312 Z M 12.941406 0.875 C 12.953125 0.863281 12.941406 0.839844 12.964844 0.839844 C 12.972656 0.839844 12.980469 0.851562 12.976562 0.863281 C 12.972656 0.878906 12.953125 0.867188 12.941406 0.875 Z M 16.28125 1.027344 C 16.28125 1.015625 16.292969 1.011719 16.300781 1.011719 C 16.3125 1.011719 16.320312 1.015625 16.320312 1.027344 C 16.324219 1.039062 16.320312 1.046875 16.308594 1.050781 C 16.292969 1.046875 16.285156 1.039062 16.28125 1.027344 Z M 17.648438 4.960938 C 17.644531 4.964844 17.640625 4.972656 17.632812 4.972656 C 17.628906 4.972656 17.617188 4.96875 17.621094 4.960938 C 17.625 4.957031 17.628906 4.949219 17.632812 4.945312 C 17.644531 4.945312 17.648438 4.953125 17.648438 4.960938 Z M 13.800781 0.523438 C 13.796875 0.53125 13.792969 0.539062 13.785156 0.539062 C 13.773438 0.535156 13.769531 0.527344 13.769531 0.519531 C 13.773438 0.511719 13.78125 0.507812 13.789062 0.507812 C 13.796875 0.511719 13.800781 0.515625 13.800781 0.523438 Z M 17.515625 4.472656 C 17.519531 4.476562 17.527344 4.480469 17.527344 4.484375 C 17.53125 4.5 17.523438 4.503906 17.511719 4.5 C 17.507812 4.5 17.5 4.492188 17.5 4.488281 C 17.5 4.476562 17.507812 4.472656 17.515625 4.472656 Z M 17.8125 6.027344 C 17.8125 6.03125 17.804688 6.035156 17.796875 6.039062 C 17.792969 6.039062 17.785156 6.035156 17.785156 6.027344 C 17.785156 6.023438 17.792969 6.015625 17.792969 6.015625 C 17.804688 6.015625 17.8125 6.019531 17.8125 6.027344 Z M 13.996094 0.410156 C 14 0.410156 14.003906 0.410156 14.007812 0.410156 C 14.015625 0.414062 14.011719 0.421875 14.007812 0.425781 C 14 0.433594 13.996094 0.433594 13.988281 0.425781 C 13.984375 0.417969 13.988281 0.414062 13.996094 0.410156 Z M 12.878906 0.835938 C 12.878906 0.84375 12.871094 0.851562 12.863281 0.851562 C 12.855469 0.851562 12.847656 0.847656 12.851562 0.839844 C 12.851562 0.828125 12.859375 0.824219 12.867188 0.824219 C 12.878906 0.824219 12.882812 0.832031 12.878906 0.835938 Z M 13 1.183594 C 12.996094 1.191406 12.996094 1.203125 12.984375 1.199219 C 12.976562 1.199219 12.972656 1.183594 12.972656 1.175781 C 12.972656 1.167969 12.980469 1.164062 12.988281 1.164062 C 13 1.167969 13.003906 1.175781 13 1.183594 Z M 17.550781 5.636719 C 17.566406 5.640625 17.5625 5.652344 17.5625 5.664062 C 17.5625 5.667969 17.558594 5.675781 17.558594 5.683594 C 17.550781 5.671875 17.546875 5.664062 17.539062 5.65625 C 17.539062 5.644531 17.542969 5.636719 17.550781 5.636719 Z M 13.65625 0.859375 C 13.664062 0.851562 13.664062 0.828125 13.683594 0.835938 C 13.6875 0.835938 13.691406 0.839844 13.691406 0.839844 C 13.683594 0.859375 13.664062 0.847656 13.65625 0.859375 Z M 13.214844 0.949219 C 13.21875 0.949219 13.226562 0.953125 13.226562 0.953125 C 13.234375 0.960938 13.226562 0.96875 13.222656 0.96875 C 13.214844 0.972656 13.207031 0.972656 13.203125 0.964844 C 13.203125 0.953125 13.207031 0.953125 13.214844 0.949219 Z M 16.078125 0.953125 C 16.082031 0.953125 16.089844 0.953125 16.089844 0.957031 C 16.089844 0.964844 16.085938 0.972656 16.078125 0.96875 C 16.074219 0.96875 16.070312 0.964844 16.070312 0.960938 C 16.074219 0.957031 16.074219 0.953125 16.078125 0.953125 Z M 17.359375 4.855469 C 17.359375 4.863281 17.351562 4.867188 17.34375 4.867188 C 17.335938 4.867188 17.332031 4.859375 17.335938 4.851562 C 17.335938 4.84375 17.339844 4.839844 17.347656 4.839844 C 17.355469 4.839844 17.359375 4.847656 17.359375 4.855469 Z M 12.457031 2.078125 C 12.464844 2.078125 12.472656 2.082031 12.472656 2.085938 C 12.476562 2.097656 12.46875 2.105469 12.460938 2.105469 C 12.453125 2.105469 12.449219 2.097656 12.445312 2.09375 C 12.445312 2.082031 12.449219 2.078125 12.457031 2.078125 Z M 16.785156 2.121094 C 16.789062 2.121094 16.796875 2.121094 16.796875 2.125 C 16.800781 2.132812 16.796875 2.136719 16.792969 2.140625 C 16.785156 2.144531 16.777344 2.140625 16.777344 2.136719 C 16.773438 2.125 16.777344 2.121094 16.785156 2.121094 Z M 17.222656 1.289062 C 17.222656 1.292969 17.21875 1.296875 17.214844 1.296875 C 17.207031 1.296875 17.199219 1.292969 17.199219 1.285156 C 17.199219 1.28125 17.207031 1.28125 17.210938 1.277344 C 17.21875 1.28125 17.226562 1.28125 17.222656 1.289062 Z M 17.097656 4.238281 C 17.09375 4.242188 17.089844 4.246094 17.085938 4.246094 C 17.078125 4.246094 17.070312 4.242188 17.070312 4.234375 C 17.070312 4.226562 17.078125 4.226562 17.085938 4.226562 C 17.09375 4.226562 17.097656 4.230469 17.097656 4.238281 Z M 16.644531 3.148438 C 16.644531 3.15625 16.640625 3.160156 16.628906 3.160156 C 16.621094 3.160156 16.617188 3.152344 16.617188 3.148438 C 16.617188 3.140625 16.625 3.136719 16.628906 3.136719 C 16.640625 3.136719 16.644531 3.140625 16.644531 3.148438 Z M 16.3125 0.832031 C 16.3125 0.835938 16.304688 0.839844 16.300781 0.835938 C 16.292969 0.835938 16.289062 0.832031 16.289062 0.824219 C 16.289062 0.820312 16.296875 0.820312 16.300781 0.820312 C 16.308594 0.820312 16.316406 0.824219 16.3125 0.832031 Z M 13.441406 1.179688 C 13.4375 1.179688 13.433594 1.175781 13.429688 1.171875 C 13.425781 1.164062 13.429688 1.160156 13.4375 1.160156 C 13.445312 1.160156 13.449219 1.164062 13.453125 1.164062 C 13.453125 1.175781 13.449219 1.179688 13.441406 1.179688 Z M 13.25 1.070312 C 13.25 1.074219 13.246094 1.082031 13.246094 1.085938 C 13.242188 1.082031 13.234375 1.078125 13.230469 1.074219 C 13.226562 1.066406 13.230469 1.058594 13.238281 1.058594 C 13.246094 1.058594 13.25 1.0625 13.25 1.070312 Z M 14.695312 0.714844 C 14.703125 0.714844 14.710938 0.722656 14.710938 0.734375 C 14.710938 0.738281 14.699219 0.738281 14.691406 0.738281 C 14.683594 0.738281 14.679688 0.734375 14.679688 0.742188 C 14.679688 0.714844 14.6875 0.710938 14.695312 0.714844 Z M 16.765625 2.464844 C 16.769531 2.464844 16.777344 2.464844 16.777344 2.46875 C 16.78125 2.476562 16.777344 2.484375 16.769531 2.484375 C 16.765625 2.484375 16.761719 2.476562 16.761719 2.476562 C 16.761719 2.472656 16.761719 2.464844 16.765625 2.464844 Z M 16.828125 2.605469 C 16.816406 2.605469 16.800781 2.605469 16.800781 2.589844 C 16.800781 2.585938 16.804688 2.582031 16.804688 2.582031 C 16.824219 2.582031 16.820312 2.597656 16.828125 2.605469 Z M 14.617188 0.285156 C 14.621094 0.285156 14.628906 0.289062 14.628906 0.289062 C 14.632812 0.296875 14.628906 0.304688 14.617188 0.304688 C 14.617188 0.304688 14.613281 0.300781 14.609375 0.296875 C 14.609375 0.292969 14.613281 0.289062 14.617188 0.285156 Z M 12.898438 2.609375 C 12.90625 2.613281 12.914062 2.613281 12.910156 2.621094 C 12.910156 2.628906 12.90625 2.636719 12.898438 2.632812 C 12.890625 2.628906 12.886719 2.625 12.886719 2.617188 C 12.886719 2.613281 12.890625 2.605469 12.898438 2.609375 Z M 16.835938 2.71875 C 16.828125 2.71875 16.824219 2.722656 16.816406 2.722656 C 16.816406 2.722656 16.8125 2.714844 16.8125 2.710938 C 16.8125 2.703125 16.816406 2.699219 16.828125 2.703125 C 16.832031 2.703125 16.832031 2.710938 16.835938 2.71875 Z M 16.707031 2.890625 C 16.710938 2.890625 16.714844 2.894531 16.71875 2.898438 C 16.71875 2.90625 16.714844 2.914062 16.707031 2.914062 C 16.699219 2.914062 16.695312 2.910156 16.695312 2.902344 C 16.695312 2.894531 16.699219 2.886719 16.707031 2.890625 Z M 17.28125 6.195312 C 17.289062 6.195312 17.292969 6.199219 17.292969 6.207031 C 17.292969 6.210938 17.289062 6.214844 17.289062 6.214844 C 17.28125 6.214844 17.273438 6.210938 17.273438 6.203125 C 17.273438 6.199219 17.277344 6.195312 17.28125 6.195312 Z M 12.65625 1.25 C 12.660156 1.25 12.667969 1.253906 12.667969 1.253906 C 12.671875 1.257812 12.667969 1.261719 12.664062 1.269531 C 12.660156 1.265625 12.65625 1.261719 12.652344 1.261719 C 12.65625 1.257812 12.65625 1.253906 12.65625 1.25 Z M 13.152344 1.09375 C 13.148438 1.097656 13.144531 1.09375 13.140625 1.089844 C 13.136719 1.082031 13.144531 1.078125 13.152344 1.078125 C 13.152344 1.078125 13.15625 1.082031 13.160156 1.085938 C 13.15625 1.089844 13.15625 1.09375 13.152344 1.09375 Z M 16.503906 3.917969 C 16.503906 3.917969 16.507812 3.921875 16.507812 3.921875 C 16.507812 3.925781 16.503906 3.929688 16.5 3.933594 C 16.5 3.929688 16.496094 3.925781 16.492188 3.921875 C 16.496094 3.921875 16.5 3.917969 16.503906 3.917969 Z M 15.628906 4.050781 C 15.628906 4.054688 15.632812 4.058594 15.632812 4.058594 C 15.628906 4.0625 15.625 4.0625 15.621094 4.066406 C 15.621094 4.0625 15.617188 4.058594 15.617188 4.054688 C 15.621094 4.050781 15.625 4.050781 15.628906 4.050781 Z M 12.917969 1.265625 C 12.921875 1.265625 12.921875 1.273438 12.925781 1.277344 C 12.921875 1.277344 12.914062 1.28125 12.914062 1.28125 C 12.910156 1.28125 12.90625 1.273438 12.90625 1.269531 C 12.910156 1.269531 12.917969 1.261719 12.917969 1.265625 Z M 12.445312 2.222656 C 12.441406 2.226562 12.4375 2.226562 12.4375 2.226562 C 12.433594 2.226562 12.433594 2.222656 12.433594 2.222656 C 12.4375 2.21875 12.4375 2.214844 12.441406 2.210938 C 12.441406 2.21875 12.445312 2.21875 12.445312 2.222656 Z M 16.695312 2.207031 C 16.699219 2.210938 16.703125 2.210938 16.703125 2.21875 C 16.707031 2.226562 16.703125 2.230469 16.695312 2.230469 C 16.6875 2.234375 16.683594 2.226562 16.683594 2.21875 C 16.683594 2.210938 16.6875 2.207031 16.695312 2.207031 Z M 14.773438 0.402344 C 14.773438 0.402344 14.777344 0.394531 14.777344 0.390625 C 14.78125 0.390625 14.789062 0.394531 14.789062 0.398438 C 14.789062 0.398438 14.789062 0.40625 14.785156 0.410156 C 14.78125 0.40625 14.777344 0.40625 14.773438 0.402344 Z M 12.996094 0.921875 C 12.996094 0.921875 13 0.914062 13 0.914062 C 13.003906 0.914062 13.011719 0.914062 13.011719 0.917969 C 13.011719 0.921875 13.011719 0.925781 13.007812 0.929688 C 13.003906 0.929688 13 0.925781 12.996094 0.921875 Z M 17.527344 6.019531 C 17.53125 6.023438 17.53125 6.027344 17.53125 6.03125 C 17.53125 6.039062 17.523438 6.042969 17.515625 6.039062 C 17.515625 6.039062 17.511719 6.03125 17.511719 6.027344 C 17.515625 6.019531 17.519531 6.019531 17.527344 6.019531 Z M 17.574219 6.023438 C 17.578125 6.023438 17.585938 6.023438 17.585938 6.023438 C 17.589844 6.03125 17.585938 6.035156 17.578125 6.039062 C 17.578125 6.039062 17.574219 6.035156 17.570312 6.035156 C 17.570312 6.03125 17.574219 6.027344 17.574219 6.023438 Z M 12.625 1.917969 C 12.628906 1.914062 12.636719 1.917969 12.640625 1.925781 C 12.640625 1.925781 12.636719 1.933594 12.636719 1.9375 C 12.628906 1.941406 12.621094 1.9375 12.621094 1.929688 C 12.621094 1.925781 12.621094 1.917969 12.625 1.917969 Z M 17.375 4.90625 C 17.378906 4.90625 17.382812 4.914062 17.382812 4.917969 C 17.382812 4.925781 17.375 4.929688 17.367188 4.925781 C 17.367188 4.925781 17.363281 4.917969 17.363281 4.914062 C 17.363281 4.90625 17.371094 4.902344 17.375 4.90625 Z M 17.5625 4.9375 C 17.566406 4.9375 17.570312 4.9375 17.574219 4.941406 C 17.578125 4.949219 17.574219 4.957031 17.5625 4.957031 C 17.5625 4.957031 17.558594 4.949219 17.554688 4.945312 C 17.558594 4.945312 17.558594 4.9375 17.5625 4.9375 Z M 17.53125 5.039062 C 17.539062 5.039062 17.546875 5.039062 17.546875 5.046875 C 17.546875 5.050781 17.542969 5.058594 17.539062 5.058594 C 17.53125 5.0625 17.527344 5.058594 17.523438 5.050781 C 17.527344 5.046875 17.527344 5.039062 17.53125 5.039062 Z M 17.394531 5.054688 C 17.394531 5.050781 17.394531 5.042969 17.394531 5.042969 C 17.402344 5.039062 17.410156 5.039062 17.410156 5.046875 C 17.414062 5.050781 17.40625 5.054688 17.40625 5.058594 C 17.402344 5.058594 17.398438 5.058594 17.394531 5.054688 Z M 13.097656 0.96875 C 13.101562 0.96875 13.109375 0.972656 13.109375 0.972656 C 13.117188 0.976562 13.113281 0.984375 13.105469 0.984375 C 13.101562 0.984375 13.097656 0.980469 13.09375 0.980469 C 13.097656 0.976562 13.097656 0.972656 13.097656 0.96875 Z M 17.785156 5.246094 C 17.792969 5.246094 17.796875 5.25 17.796875 5.261719 C 17.796875 5.261719 17.792969 5.269531 17.792969 5.269531 C 17.785156 5.269531 17.78125 5.265625 17.777344 5.257812 C 17.78125 5.253906 17.78125 5.246094 17.785156 5.246094 Z M 17.691406 5.351562 C 17.691406 5.355469 17.6875 5.359375 17.683594 5.355469 C 17.675781 5.355469 17.671875 5.351562 17.675781 5.34375 C 17.675781 5.339844 17.679688 5.339844 17.683594 5.335938 C 17.691406 5.339844 17.695312 5.34375 17.691406 5.351562 Z M 12.492188 1.441406 C 12.492188 1.441406 12.484375 1.445312 12.480469 1.445312 C 12.476562 1.445312 12.472656 1.4375 12.476562 1.429688 C 12.476562 1.429688 12.480469 1.425781 12.484375 1.425781 C 12.492188 1.429688 12.496094 1.433594 12.492188 1.441406 Z M 17.632812 5.78125 C 17.632812 5.78125 17.628906 5.785156 17.625 5.785156 C 17.621094 5.78125 17.617188 5.777344 17.617188 5.773438 C 17.621094 5.773438 17.625 5.769531 17.628906 5.769531 C 17.632812 5.773438 17.636719 5.777344 17.632812 5.78125 Z M 12.855469 0.964844 C 12.855469 0.957031 12.859375 0.953125 12.859375 0.953125 C 12.867188 0.953125 12.851562 0.929688 12.863281 0.945312 C 12.878906 0.957031 12.855469 0.953125 12.855469 0.964844 C 12.855469 0.960938 12.855469 0.964844 12.855469 0.964844 Z M 12.550781 1.578125 C 12.550781 1.578125 12.554688 1.585938 12.554688 1.585938 C 12.550781 1.59375 12.546875 1.597656 12.539062 1.59375 C 12.535156 1.59375 12.535156 1.585938 12.535156 1.582031 C 12.539062 1.574219 12.542969 1.574219 12.550781 1.578125 Z M 14.375 0.597656 C 14.378906 0.601562 14.382812 0.601562 14.386719 0.605469 C 14.390625 0.609375 14.390625 0.617188 14.382812 0.617188 C 14.378906 0.617188 14.375 0.613281 14.371094 0.613281 C 14.371094 0.609375 14.371094 0.601562 14.375 0.597656 Z M 17.578125 5.066406 C 17.578125 5.066406 17.582031 5.066406 17.585938 5.0625 C 17.589844 5.058594 17.59375 5.0625 17.589844 5.070312 C 17.589844 5.074219 17.585938 5.074219 17.582031 5.078125 C 17.574219 5.078125 17.574219 5.074219 17.578125 5.066406 Z M 13.835938 0.90625 C 13.839844 0.90625 13.84375 0.90625 13.847656 0.910156 C 13.84375 0.910156 13.839844 0.914062 13.835938 0.914062 C 13.832031 0.914062 13.828125 0.910156 13.824219 0.910156 C 13.832031 0.910156 13.835938 0.90625 13.835938 0.90625 Z M 17.539062 5.339844 C 17.539062 5.339844 17.539062 5.34375 17.539062 5.34375 C 17.535156 5.34375 17.535156 5.34375 17.53125 5.34375 C 17.53125 5.335938 17.535156 5.335938 17.539062 5.339844 Z M 12.710938 1.773438 C 12.707031 1.773438 12.707031 1.773438 12.703125 1.773438 C 12.699219 1.769531 12.699219 1.769531 12.707031 1.765625 C 12.707031 1.765625 12.710938 1.769531 12.710938 1.769531 C 12.710938 1.769531 12.710938 1.773438 12.710938 1.773438 Z M 13.0625 0.722656 C 13.0625 0.726562 13.066406 0.730469 13.066406 0.730469 C 13.058594 0.738281 13.0625 0.726562 13.0625 0.722656 Z M 17.167969 6.117188 C 17.164062 6.113281 17.160156 6.113281 17.15625 6.109375 C 17.15625 6.109375 17.160156 6.105469 17.160156 6.105469 C 17.164062 6.105469 17.167969 6.109375 17.171875 6.109375 C 17.171875 6.113281 17.171875 6.117188 17.167969 6.117188 Z M 13.890625 0.871094 C 13.894531 0.871094 13.898438 0.875 13.902344 0.875 C 13.902344 0.878906 13.898438 0.882812 13.898438 0.882812 C 13.894531 0.882812 13.890625 0.882812 13.886719 0.878906 C 13.886719 0.878906 13.890625 0.875 13.890625 0.871094 Z M 16.75 2.964844 C 16.746094 2.972656 16.742188 2.972656 16.738281 2.964844 C 16.738281 2.964844 16.738281 2.960938 16.742188 2.957031 C 16.742188 2.957031 16.742188 2.957031 16.746094 2.957031 C 16.746094 2.957031 16.75 2.960938 16.75 2.964844 Z M 12.859375 1.195312 C 12.863281 1.191406 12.867188 1.1875 12.871094 1.1875 C 12.871094 1.1875 12.875 1.191406 12.878906 1.191406 C 12.871094 1.195312 12.871094 1.195312 12.867188 1.199219 C 12.863281 1.195312 12.863281 1.195312 12.859375 1.195312 Z M 17.21875 4.644531 L 17.214844 4.644531 L 17.21875 4.640625 Z M 12.96875 2.261719 L 12.964844 2.261719 L 12.964844 2.257812 Z M 12.996094 2.453125 L 12.992188 2.453125 L 12.996094 2.449219 Z M 12.996094 2.453125 " fill-opacity="1" fill-rule="nonzero"/></g><g fill="#000000" fill-opacity="1"><g transform="translate(24.485607, 9.239275)"><g><path d="M 2.40625 -2.109375 C 2.632812 -2.023438 2.816406 -1.898438 2.953125 -1.734375 C 3.085938 -1.566406 3.15625 -1.367188 3.15625 -1.140625 C 3.15625 -0.878906 3.09375 -0.664062 2.96875 -0.5 C 2.84375 -0.332031 2.675781 -0.207031 2.46875 -0.125 C 2.269531 -0.0390625 2.046875 0 1.796875 0 L 0.59375 0 L 0.59375 -4.078125 L 1.640625 -4.078125 C 2.054688 -4.078125 2.378906 -3.988281 2.609375 -3.8125 C 2.835938 -3.644531 2.953125 -3.390625 2.953125 -3.046875 C 2.953125 -2.835938 2.90625 -2.648438 2.8125 -2.484375 C 2.71875 -2.328125 2.582031 -2.203125 2.40625 -2.109375 Z M 1.140625 -2.296875 L 1.75 -2.296875 C 1.957031 -2.296875 2.113281 -2.351562 2.21875 -2.46875 C 2.332031 -2.59375 2.390625 -2.75 2.390625 -2.9375 C 2.390625 -3.144531 2.328125 -3.296875 2.203125 -3.390625 C 2.078125 -3.492188 1.894531 -3.546875 1.65625 -3.546875 L 1.140625 -3.546875 Z M 1.78125 -0.5 C 2.007812 -0.5 2.203125 -0.550781 2.359375 -0.65625 C 2.515625 -0.769531 2.59375 -0.929688 2.59375 -1.140625 C 2.59375 -1.347656 2.507812 -1.503906 2.34375 -1.609375 C 2.175781 -1.710938 1.972656 -1.765625 1.734375 -1.765625 L 1.140625 -1.765625 L 1.140625 -0.5 Z M 1.78125 -0.5 "/></g></g></g><g fill="#000000" fill-opacity="1"><g transform="translate(29.433405, 9.239275)"><g><path d="M 3.75 -4.078125 L 2.21875 -1.359375 L 2.21875 0 L 1.671875 0 L 1.671875 -1.359375 L 0.15625 -4.078125 L 0.828125 -4.078125 L 1.953125 -1.984375 L 3.078125 -4.078125 Z M 3.75 -4.078125 "/></g></g></g><g fill="#000000" fill-opacity="1"><g transform="translate(34.79349, 9.239275)"><g/></g></g><g fill="#000000" fill-opacity="1"><g transform="translate(38.030012, 9.239275)"><g><path d="M 1.46875 -0.734375 C 1.46875 -0.410156 1.40625 -0.132812 1.28125 0.09375 C 1.15625 0.332031 0.984375 0.515625 0.765625 0.640625 C 0.546875 0.765625 0.296875 0.832031 0.015625 0.84375 L 0.015625 0.3125 C 0.296875 0.289062 0.515625 0.191406 0.671875 0.015625 C 0.835938 -0.160156 0.921875 -0.414062 0.921875 -0.75 L 0.921875 -4.078125 L 1.46875 -4.078125 Z M 1.46875 -0.734375 "/></g></g></g><g fill="#000000" fill-opacity="1"><g transform="translate(41.543273, 9.239275)"><g><path d="M 0.59375 -4.078125 L 1.703125 -4.078125 C 2.210938 -4.078125 2.632812 -3.972656 2.96875 -3.765625 C 3.300781 -3.566406 3.539062 -3.304688 3.6875 -2.984375 C 3.84375 -2.671875 3.921875 -2.335938 3.921875 -1.984375 C 3.921875 -1.597656 3.828125 -1.25 3.640625 -0.9375 C 3.460938 -0.632812 3.21875 -0.398438 2.90625 -0.234375 C 2.59375 -0.078125 2.257812 0 1.90625 0 L 0.59375 0 Z M 1.796875 -0.53125 C 2.097656 -0.53125 2.363281 -0.585938 2.59375 -0.703125 C 2.832031 -0.828125 3.019531 -1 3.15625 -1.21875 C 3.289062 -1.445312 3.359375 -1.71875 3.359375 -2.03125 C 3.359375 -2.351562 3.285156 -2.628906 3.140625 -2.859375 C 3.003906 -3.085938 2.820312 -3.257812 2.59375 -3.375 C 2.363281 -3.488281 2.113281 -3.546875 1.84375 -3.546875 L 1.140625 -3.546875 L 1.140625 -0.53125 Z M 1.796875 -0.53125 "/></g></g></g><g fill="#000000" fill-opacity="1"><g transform="translate(47.253519, 9.239275)"><g><path d="M 1.140625 -4.078125 L 1.140625 0 L 0.59375 0 L 0.59375 -4.078125 Z M 1.140625 -4.078125 "/></g></g></g><g fill="#000000" fill-opacity="1"><g transform="translate(50.427917, 9.239275)"><g><path d="M 3.234375 -4.078125 L 3.234375 -3.546875 L 1.140625 -3.546875 L 1.140625 -2.3125 L 3.015625 -2.3125 L 3.015625 -1.78125 L 1.140625 -1.78125 L 1.140625 -0.53125 L 3.3125 -0.53125 L 3.3125 0 L 0.59375 0 L 0.59375 -4.078125 Z M 3.234375 -4.078125 "/></g></g></g><g fill="#000000" fill-opacity="1"><g transform="translate(55.567739, 9.239275)"><g><path d="M 3.78125 -0.34375 C 3.65625 -0.25 3.457031 -0.160156 3.1875 -0.078125 C 2.925781 0.00390625 2.6875 0.046875 2.46875 0.046875 C 2.039062 0.046875 1.664062 -0.0390625 1.34375 -0.21875 C 1.019531 -0.394531 0.769531 -0.632812 0.59375 -0.9375 C 0.414062 -1.238281 0.328125 -1.582031 0.328125 -1.96875 C 0.328125 -2.40625 0.421875 -2.785156 0.609375 -3.109375 C 0.796875 -3.441406 1.050781 -3.691406 1.375 -3.859375 C 1.695312 -4.035156 2.046875 -4.125 2.421875 -4.125 C 2.648438 -4.125 2.863281 -4.09375 3.0625 -4.03125 C 3.269531 -3.976562 3.457031 -3.910156 3.625 -3.828125 L 3.4375 -3.328125 C 3.320312 -3.390625 3.171875 -3.445312 2.984375 -3.5 C 2.804688 -3.550781 2.644531 -3.578125 2.5 -3.578125 C 2.175781 -3.578125 1.894531 -3.507812 1.65625 -3.375 C 1.414062 -3.25 1.226562 -3.066406 1.09375 -2.828125 C 0.957031 -2.597656 0.890625 -2.328125 0.890625 -2.015625 C 0.890625 -1.710938 0.957031 -1.445312 1.09375 -1.21875 C 1.226562 -0.988281 1.414062 -0.8125 1.65625 -0.6875 C 1.894531 -0.5625 2.164062 -0.5 2.46875 -0.5 C 2.613281 -0.5 2.753906 -0.515625 2.890625 -0.546875 C 3.023438 -0.578125 3.140625 -0.617188 3.234375 -0.671875 L 3.234375 -1.46875 L 2.421875 -1.46875 L 2.421875 -2 L 3.78125 -2 Z M 3.78125 -0.34375 "/></g></g></g><g fill="#000000" fill-opacity="1"><g transform="translate(61.266691, 9.239275)"><g><path d="M 2.90625 0 L 1.84375 -1.625 L 0.875 0 L 0.1875 0 L 1.53125 -2.109375 L 0.25 -4.078125 L 0.9375 -4.078125 L 1.953125 -2.515625 L 2.875 -4.078125 L 3.546875 -4.078125 L 2.25 -2.0625 L 3.59375 0 Z M 2.90625 0 "/></g></g></g></svg>